<svg width="298" height="402" viewBox="0 0 298 402" fill="none" xmlns="http://www.w3.org/2000/svg">
<path fill-rule="evenodd" clip-rule="evenodd" d="M250.926 92.3464C251.289 103.249 250.214 114.013 245.981 124.153C237.013 145.647 221.323 159.814 198.922 166.406C190.677 168.832 182.259 170.193 173.64 169.996C172.206 169.964 171.431 170.491 170.773 171.651C165.04 181.784 159.303 191.913 153.485 201.999C152.901 203.009 151.691 204.455 150.922 204.369C149.899 204.253 148.74 202.996 148.13 201.944C142.225 191.735 136.451 181.451 130.532 171.253C130.139 170.574 128.853 170.065 127.985 170.068C116.168 170.131 104.683 168.102 93.9571 163.273C69.9971 152.485 55.3613 134.149 51.482 107.938C49.6232 95.3843 49.4558 82.7399 53.0705 70.3578C58.2681 52.5479 68.1924 37.7696 81.5923 25.0326C94.643 12.6274 110.539 6.63648 127.772 3.55579C135.27 2.21632 142.914 0.989485 150.49 1.00007C158.289 1.01141 166.115 2.38376 173.877 3.5282C186.289 5.35976 198.086 9.43221 208.635 16.1152C220.863 23.8613 230.405 34.5014 238.043 46.842C244.867 57.8699 249.599 69.6276 250.881 82.6023C251.2 85.821 250.926 89.0971 250.926 92.3464ZM150.83 197.801C153.261 193.428 155.479 189.301 157.827 185.247C161.163 179.49 164.722 173.857 167.913 168.021C168.903 166.209 169.881 165.387 171.897 165.546C179.595 166.151 187.126 165.121 194.595 163.273C216.006 157.977 231.629 145.404 240.899 125.482C247.602 111.077 248.203 95.6032 246.338 80.0859C244.827 67.5145 239.479 56.324 232.472 45.9103C223.97 33.2746 213.493 22.6783 199.579 16.1114C178.403 6.11605 156.138 3.07542 133.004 6.76008C116.671 9.36191 101.255 14.1706 88.1766 24.9664C73.8458 36.7956 63.7091 51.442 57.8025 69.0021C53.8302 80.804 53.9655 92.9628 55.2864 105.16C56.4112 115.542 59.4023 125.36 65.2829 134.039C79.54 155.087 99.8894 164.856 124.929 165.684C127.041 165.754 129.161 165.745 131.255 165.972C131.956 166.05 132.853 166.594 133.211 167.192C136.6 172.828 139.922 178.506 143.199 184.207C145.75 188.643 148.211 193.127 150.83 197.801Z" fill="#15A883" stroke="#15A883" stroke-width="0.755906" stroke-miterlimit="22.9256"/>
<path fill-rule="evenodd" clip-rule="evenodd" d="M73.7549 370.862C64.0286 367.98 54.5023 365.525 45.4092 362.374C32.4975 357.901 20.1937 352.612 10.2165 344.826C-0.461451 336.498 -2.49597 326.892 2.83846 316.363C8.50812 305.182 19.5579 297.205 32.7768 291.037C52.2425 281.957 73.3969 275.852 96.299 273.405C97.1558 273.314 98.0466 273.393 99.3181 273.393C82.3518 304.534 74.8857 336.86 73.7549 370.862Z" fill="#444444"/>
<path fill-rule="evenodd" clip-rule="evenodd" d="M180.893 266.112C185.896 266.735 189.879 267.076 193.751 267.731C220.245 272.221 245.202 279.167 266.951 290.969C277.174 296.516 285.611 303.184 291.489 311.375C299.799 322.952 298.335 333.761 286.685 343.827C275.474 353.516 261.919 361.061 245.238 365.641C236.387 368.071 227.459 370.371 218.539 372.676C216.697 373.152 214.728 373.39 212.144 373.862C209.379 336.862 201.517 300.943 180.893 266.112Z" fill="#444444"/>
<path d="M84.8696 123.326V96.9258C84.8696 95.538 85.943 94.4639 87.3308 94.4639H87.3751C87.3751 94.4639 87.3751 94.4639 87.465 94.4639H101.963C103.261 94.4639 104.424 95.538 104.424 96.9258C104.424 98.3122 103.261 99.4313 101.963 99.4313H89.8363V107.62H100.262C101.605 107.62 102.724 108.783 102.724 110.081C102.724 111.468 101.605 112.587 100.262 112.587H89.8363V120.82H101.963C103.261 120.82 104.424 121.939 104.424 123.326C104.424 124.668 103.261 125.787 101.963 125.787H87.465C87.3751 125.787 87.3751 125.742 87.3751 125.742L87.3308 125.787C85.943 125.787 84.8696 124.668 84.8696 123.326Z" fill="#ca3b55" stroke="#ca3b55" stroke-width="0.755906" stroke-miterlimit="22.9256"/>
<path d="M130.685 122.073C131.134 123.371 130.417 124.758 129.119 125.205C128.94 125.25 128.583 125.34 128.134 125.34C128.134 125.34 128.134 125.34 128.09 125.34C127.643 125.34 126.971 125.25 126.345 124.848C125.763 124.489 125.271 123.908 124.913 123.282C124.287 121.984 123.973 120.373 123.973 117.912C123.929 117.062 123.75 116.48 123.436 115.987C123.168 115.495 122.631 115.048 122.094 114.69C121.155 114.064 119.991 113.705 119.588 113.616H114.308V123.326C114.308 124.668 113.189 125.787 111.802 125.787C110.415 125.787 109.341 124.668 109.341 123.326V96.9258C109.341 95.538 110.415 94.4639 111.802 94.4639C111.802 94.4639 111.802 94.4639 111.847 94.4639H119.812C125.137 94.4639 129.388 98.7593 129.388 104.085C129.388 107.038 128.046 109.633 125.898 111.423C126.479 111.871 127.016 112.408 127.464 113.079C128.359 114.377 128.94 116.032 128.94 117.912C128.896 119.254 129.03 120.104 129.119 120.552C129.835 120.775 130.417 121.313 130.685 122.073ZM124.422 104.085C124.422 101.49 122.363 99.4313 119.812 99.4313H114.308V108.649H119.812C122.363 108.649 124.422 106.59 124.422 104.085Z" fill="#ca3b55" stroke="#ca3b55" stroke-width="0.755906" stroke-miterlimit="22.9256"/>
<path d="M157.319 122.073C157.766 123.371 157.051 124.758 155.753 125.205C155.573 125.25 155.216 125.34 154.768 125.34C154.768 125.34 154.768 125.34 154.723 125.34C154.276 125.34 153.604 125.25 152.978 124.848C152.397 124.489 151.904 123.908 151.546 123.282C150.92 121.984 150.606 120.373 150.606 117.912C150.562 117.062 150.383 116.48 150.07 115.987C149.802 115.495 149.265 115.048 148.727 114.69C147.788 114.064 146.625 113.705 146.222 113.616H140.942V123.326C140.942 124.668 139.823 125.787 138.436 125.787C137.048 125.787 135.975 124.668 135.975 123.326V96.9258C135.975 95.538 137.048 94.4639 138.436 94.4639C138.436 94.4639 138.436 94.4639 138.481 94.4639H146.445C151.77 94.4639 156.021 98.7593 156.021 104.085C156.021 107.038 154.678 109.633 152.531 111.423C153.113 111.871 153.649 112.408 154.098 113.079C154.992 114.377 155.573 116.032 155.573 117.912C155.529 119.254 155.664 120.104 155.753 120.552C156.469 120.775 157.05 121.313 157.319 122.073ZM151.055 104.085C151.055 101.49 148.996 99.4313 146.445 99.4313H140.942V108.649H146.445C148.996 108.649 151.055 106.59 151.055 104.085Z" fill="#ca3b55" stroke="#ca3b55" stroke-width="0.755906" stroke-miterlimit="22.9256"/>
<path d="M186.507 98.3571C189.284 101.31 191.027 105.247 191.027 109.678C191.027 114.108 189.284 118.09 186.507 120.999C183.867 123.907 179.93 125.787 175.814 125.787C171.519 125.787 167.581 123.907 164.849 120.999C162.077 118.09 160.421 114.108 160.421 109.678C160.421 105.247 162.077 101.31 164.849 98.3571C167.581 95.4034 171.519 93.5688 175.814 93.5688C179.93 93.5688 183.867 95.4034 186.507 98.3571ZM185.926 109.678C185.926 106.635 184.719 103.815 182.884 101.847C181.004 99.8338 178.498 98.6704 175.814 98.6704C172.951 98.6704 170.445 99.8338 168.564 101.847C166.684 103.815 165.523 106.635 165.523 109.678C165.523 112.721 166.684 115.54 168.564 117.463C170.445 119.478 172.951 120.685 175.814 120.685C178.498 120.685 181.004 119.478 182.884 117.463C184.719 115.54 185.926 112.721 185.926 109.678Z" fill="#ca3b55" stroke="#ca3b55" stroke-width="0.755906" stroke-miterlimit="22.9256"/>
<path d="M216.564 122.073C217.012 123.371 216.297 124.758 214.998 125.205C214.819 125.25 214.462 125.34 214.014 125.34C214.014 125.34 214.014 125.34 213.969 125.34C213.522 125.34 212.851 125.25 212.224 124.848C211.643 124.489 211.15 123.908 210.792 123.282C210.166 121.984 209.852 120.373 209.852 117.912C209.808 117.062 209.629 116.48 209.315 115.987C209.047 115.495 208.511 115.048 207.973 114.69C207.034 114.064 205.871 113.705 205.469 113.616H200.187V123.326C200.187 124.668 199.069 125.787 197.682 125.787C196.294 125.787 195.221 124.668 195.221 123.326V96.9258C195.221 95.538 196.294 94.4639 197.682 94.4639C197.682 94.4639 197.682 94.4639 197.726 94.4639H205.692C211.017 94.4639 215.268 98.7593 215.268 104.085C215.268 107.038 213.925 109.633 211.777 111.423C212.359 111.871 212.896 112.408 213.342 113.079C214.239 114.377 214.819 116.032 214.819 117.912C214.774 119.254 214.909 120.104 214.998 120.552C215.714 120.775 216.297 121.313 216.564 122.073ZM210.3 104.085C210.3 101.49 208.241 99.4313 205.692 99.4313H200.187V108.649H205.692C208.241 108.649 210.3 106.59 210.3 104.085Z" fill="#ca3b55" stroke="#ca3b55" stroke-width="0.755906" stroke-miterlimit="22.9256"/>
<path d="M136.965 78.1369C136.965 79.524 135.846 80.5982 134.459 80.5982H134.011V83.9993C134.011 85.3861 132.938 86.4606 131.55 86.4606C130.163 86.4606 129.089 85.3861 129.089 83.9993V80.5982H115.084H115.038H114.994C114.457 80.5982 113.92 80.4644 113.473 80.0615C112.354 79.2107 112.22 77.6898 113.07 76.6153L129.626 56.0316C129.671 56.0316 129.671 55.9874 129.715 55.942C129.76 55.8978 129.805 55.8524 129.85 55.764C129.985 55.7187 130.028 55.6741 130.074 55.6291C130.118 55.5845 130.208 55.5391 130.253 55.4953C130.342 55.4507 130.387 55.4053 130.521 55.4053C130.566 55.3158 130.611 55.2715 130.701 55.2715C130.744 55.2262 130.835 55.2262 130.969 55.1816C131.014 55.1816 131.103 55.1816 131.147 55.1362C131.237 55.1362 131.371 55.1362 131.46 55.1362C131.46 55.1362 131.506 55.1362 131.55 55.1362C131.595 55.1362 131.595 55.1362 131.64 55.1362C131.73 55.1362 131.863 55.1362 131.909 55.1362C131.998 55.1816 132.043 55.1816 132.133 55.1816C132.176 55.2262 132.312 55.2262 132.4 55.2715C132.446 55.2715 132.535 55.3158 132.579 55.3158C132.669 55.4053 132.759 55.4507 132.803 55.4953C132.892 55.5391 132.938 55.5845 133.027 55.6291C133.027 55.6291 133.072 55.6291 133.072 55.6741C133.117 55.6741 133.205 55.7187 133.205 55.764C133.295 55.8524 133.34 55.8978 133.385 55.942C133.43 55.9874 133.475 56.077 133.52 56.1216C133.565 56.1662 133.608 56.2111 133.699 56.3449C133.699 56.3903 133.743 56.4795 133.788 56.5245C133.832 56.6136 133.832 56.6582 133.878 56.7932C133.878 56.8374 133.922 56.927 133.922 56.9712C133.967 57.0608 133.967 57.1061 133.967 57.2403C133.967 57.3295 134.011 57.3741 134.011 57.4637C134.011 57.5086 134.011 57.5532 134.011 57.5982V75.6757H134.459C135.846 75.6757 136.965 76.7944 136.965 78.1369ZM129.089 64.6232L120.185 75.6757H129.089V64.6232Z" fill="#ca3b55" stroke="#ca3b55" stroke-width="0.755906" stroke-miterlimit="22.9256"/>
<path d="M140.205 70.7986C140.25 66.6815 141.279 62.9678 143.247 60.1044C145.126 57.2403 148.036 55.1362 151.57 55.1362C155.016 55.1362 157.968 57.2403 159.848 60.1044C161.773 62.9678 162.846 66.6815 162.846 70.7986C162.846 74.8699 161.773 78.6294 159.848 81.4935C157.968 84.3123 155.016 86.4606 151.57 86.4606C148.036 86.4606 145.126 84.3123 143.247 81.4935C141.279 78.6294 140.25 74.8699 140.205 70.7986ZM157.88 70.7986C157.88 67.5769 156.985 64.7582 155.731 62.8336C154.433 60.9541 152.958 60.0595 151.57 60.1044C150.183 60.0595 148.662 60.9541 147.32 62.8336C146.068 64.7582 145.172 67.5769 145.172 70.7986C145.172 73.976 146.068 76.8398 147.32 78.719C148.662 80.6427 150.183 81.4935 151.57 81.4935C152.958 81.4935 154.433 80.6427 155.731 78.719C156.985 76.8398 157.88 73.976 157.88 70.7986Z" fill="#ca3b55" stroke="#ca3b55" stroke-width="0.755906" stroke-miterlimit="22.9256"/>
<path d="M189.409 78.1369C189.409 79.524 188.291 80.5982 186.902 80.5982H186.456V83.9993C186.456 85.3861 185.383 86.4606 183.994 86.4606C182.607 86.4606 181.534 85.3861 181.534 83.9993V80.5982H167.527H167.482H167.438C166.901 80.5982 166.365 80.4644 165.917 80.0615C164.797 79.2107 164.663 77.6898 165.514 76.6153L182.072 56.0316C182.116 56.0316 182.116 55.9874 182.16 55.942C182.204 55.8978 182.249 55.8524 182.295 55.764C182.427 55.7187 182.474 55.6741 182.519 55.6291C182.563 55.5845 182.652 55.5391 182.698 55.4953C182.786 55.4507 182.83 55.4053 182.966 55.4053C183.009 55.3158 183.055 55.2715 183.145 55.2715C183.189 55.2262 183.278 55.2262 183.412 55.1816C183.458 55.1816 183.548 55.1816 183.591 55.1362C183.681 55.1362 183.815 55.1362 183.904 55.1362C183.904 55.1362 183.951 55.1362 183.994 55.1362C184.039 55.1362 184.039 55.1362 184.084 55.1362C184.174 55.1362 184.307 55.1362 184.353 55.1362C184.441 55.1816 184.487 55.1816 184.577 55.1816C184.621 55.2262 184.756 55.2262 184.844 55.2715C184.89 55.2715 184.98 55.3158 185.024 55.3158C185.113 55.4053 185.203 55.4507 185.247 55.4953C185.336 55.5391 185.383 55.5845 185.47 55.6291C185.47 55.6291 185.516 55.6291 185.516 55.6741C185.562 55.6741 185.65 55.7187 185.65 55.764C185.739 55.8524 185.786 55.8978 185.83 55.942C185.873 55.9874 185.919 56.077 185.964 56.1216C186.009 56.1662 186.053 56.2111 186.142 56.3449C186.142 56.3903 186.188 56.4795 186.233 56.5245C186.276 56.6136 186.276 56.6582 186.321 56.7932C186.321 56.8374 186.366 56.927 186.366 56.9712C186.412 57.0608 186.412 57.1061 186.412 57.2403C186.412 57.3295 186.456 57.3741 186.456 57.4637C186.456 57.5086 186.456 57.5532 186.456 57.5982V75.6757H186.902C188.291 75.6757 189.409 76.7944 189.409 78.1369ZM181.534 64.6232L172.629 75.6757H181.534V64.6232Z" fill="#ca3b55" stroke="#ea577c" stroke-width="0.755906" stroke-miterlimit="22.9256"/>
<path fill-rule="evenodd" clip-rule="evenodd" d="M138.269 376.458C119.008 377.079 97.628 375.235 76.2487 372.489C58.6766 370.234 42.182 364.809 26.5415 356.617C20.0173 353.2 13.6016 349.352 8.68401 343.337C2.34536 335.579 1.64351 327.043 4.77295 317.961C7.95607 308.717 14.3382 301.924 22.0942 296.64C34.6569 288.08 48.4337 282.545 63.4494 280.59C69.9551 279.745 83.8516 229.664 141.517 219.18C153.298 217.038 165.191 219.023 176.616 223.232C203.476 233.126 222.949 251.311 234.923 277.954C235.771 279.841 236.832 280.583 238.783 280.903C254.092 283.394 268.206 289.088 280.636 298.653C284.426 301.571 287.974 305.186 290.68 309.169C300.745 323.983 298.963 335.344 287.256 346.848C282.281 351.736 276.494 355.284 270.208 358.055C258.82 363.077 247.074 367.023 234.871 369.108C225.641 370.689 216.275 371.501 206.943 372.351C190.619 373.843 174.284 375.224 157.935 376.39C152.17 376.802 146.352 376.458 138.269 376.458ZM146.234 369.851L146.484 373.101C152.884 373.101 159.316 373.514 165.681 373.019C181.49 371.79 196.383 366.672 212.129 364.805C223.237 363.488 230.392 358.425 241.449 356.623C243.269 356.327 248.762 362.1 248.542 360.071C247.342 349.005 246.592 337.876 245.042 326.864C243.401 315.208 240.488 303.808 236.509 292.728C236.032 291.402 235.475 290.773 233.885 290.888C211.908 292.473 189.926 293.957 167.949 295.516C166.945 295.591 165.909 296.045 165.005 296.544C162.191 298.097 159.588 300.194 156.629 301.298C147.026 304.881 137.932 303.551 129.398 297.671C127.99 296.7 126.052 296.088 124.356 296.084C105.142 296.03 85.9202 296.363 66.7769 294.173C65.3229 294.007 64.7843 294.588 64.3625 295.927C57.6788 317.041 54.0387 338.677 53.8618 360.901C67.1813 354.354 80.1825 354.897 106.092 370.904C119.995 371.902 146.23 370.111 146.234 369.851ZM49.8657 362.795C65.6559 346.674 52.0284 315.131 64.3769 283.662C63.6281 283.662 63.1035 283.597 62.599 283.671C49.1091 285.673 36.6487 290.665 25.1832 298.091C17.3973 303.135 10.8886 309.658 7.54902 318.802C4.40709 327.413 5.6052 335.268 11.8947 342.079C17.7715 348.446 25.0187 352.772 32.6239 356.429C37.9799 359.006 44.1367 360.438 49.8657 362.795ZM237.563 283.688C247.629 308.656 251.466 334.403 252.816 360.925C254.077 360.587 255.038 360.416 255.937 360.075C260.29 358.423 259.816 355.765 264.136 354.023C272.277 350.74 283.723 346.341 289.194 339.396C294.88 332.18 295.594 324.432 291.539 316.134C288.67 310.263 284.552 305.483 279.563 301.506C268.949 293.046 256.769 288.067 243.839 284.849C241.949 284.38 240.005 284.135 237.563 283.688ZM149.607 240.427C157.68 241.194 164.563 244.393 169.834 250.955C170.442 251.712 171.691 252.341 172.633 252.327C178.041 252.237 183.449 251.986 188.852 251.69L149.607 240.427ZM234.26 288.272C234.26 287.385 234.326 287.134 234.251 286.942C231.907 280.873 218.802 252.839 212.091 253.188C199.62 253.841 187.152 254.593 174.685 255.333C174.12 255.368 173.563 255.506 172.727 255.639C179.245 268.532 177.29 280.616 169.696 292.875C191.217 291.34 212.739 289.808 234.26 288.272ZM146.403 243.476C128.272 242.779 118.857 257.655 119.131 271.566C119.477 289.101 130.359 299.696 146.337 299.754C162.279 299.81 173.27 289.289 173.726 271.752C174.085 257.944 164.762 242.747 146.403 243.476ZM66.1695 290.992C85.3517 293.382 104.25 293.248 123.384 293.023C121.047 289.453 118.399 257.697 118.273 257.699C82.0616 257.837 80.9818 251.921 66.1695 290.992Z" fill="#444444"/>
<mask id="mask0_228_404" style="mask-type:luminance" maskUnits="userSpaceOnUse" x="4" y="198" width="291" height="178">
<path d="M145.434 198.8C225.493 194.759 292.383 230.898 294.837 279.517C297.291 328.136 234.38 370.826 154.32 374.866C74.2602 378.907 7.37013 342.768 4.91608 294.149C2.46241 245.531 65.3738 202.841 145.434 198.8Z" fill="white"/>
</mask>
<g mask="url(#mask0_228_404)">
<path d="M152.567 394.689C102.665 397.207 60.0153 358.658 57.4966 308.754C54.9779 258.85 93.5291 216.2 143.431 213.682C193.336 211.163 235.985 249.714 238.504 299.618C241.023 349.523 202.472 392.17 152.567 394.689Z" fill="#F8A04C"/>
<path d="M143.326 211.592C92.2694 214.168 52.8296 257.803 55.4065 308.859C57.9834 359.916 101.616 399.358 152.673 396.781C203.729 394.204 243.171 350.569 240.594 299.513C238.017 248.456 194.382 209.015 143.326 211.592ZM143.537 215.773C192.367 213.309 233.949 250.894 236.414 299.724C238.878 348.552 201.292 390.134 152.462 392.598C103.634 395.063 62.0513 357.477 59.5867 308.648C57.1224 259.819 94.7095 218.238 143.537 215.773Z" fill="#CA6931"/>
<path d="M152.462 392.598C152.417 392.601 152.376 392.603 152.331 392.605C152.315 392.606 152.299 392.607 152.28 392.608C152.254 392.609 152.229 392.61 152.203 392.612C152.18 392.613 152.158 392.614 152.138 392.615C152.117 392.614 152.097 392.615 152.076 392.616C152.05 392.618 152.025 392.619 152.001 392.62C151.989 392.621 151.972 392.622 151.96 392.622C147.048 392.843 142.215 392.654 137.484 392.094C250.777 352.9 205.93 238.246 205.946 237.264C222.552 251.645 233.814 272.145 236.1 295.488C236.101 295.49 236.101 295.496 236.101 295.498C236.105 295.543 236.109 295.585 236.113 295.63C236.114 295.638 236.114 295.644 236.115 295.652C236.119 295.693 236.122 295.732 236.127 295.772C236.127 295.782 236.128 295.791 236.13 295.801C236.132 295.837 236.136 295.876 236.14 295.915C236.141 295.927 236.143 295.937 236.144 295.949C236.146 295.986 236.149 296.022 236.153 296.06C236.154 296.07 236.155 296.084 236.157 296.094C236.159 296.131 236.163 296.165 236.167 296.2C236.167 296.212 236.169 296.23 236.171 296.242C236.173 296.277 236.177 296.312 236.18 296.344C236.181 296.36 236.181 296.371 236.182 296.387C236.186 296.419 236.188 296.454 236.191 296.488C236.192 296.503 236.195 296.519 236.196 296.533C236.198 296.566 236.201 296.599 236.205 296.631C236.206 296.649 236.206 296.662 236.208 296.68C236.211 296.711 236.212 296.741 236.216 296.774C236.217 296.792 236.218 296.808 236.221 296.827C236.222 296.857 236.226 296.888 236.228 296.919C236.228 296.935 236.231 296.953 236.232 296.971C236.234 297.002 236.237 297.03 236.239 297.061C236.242 297.079 236.243 297.1 236.243 297.116C236.247 297.144 236.249 297.175 236.25 297.205C236.253 297.221 236.254 297.244 236.255 297.26C236.256 297.291 236.26 297.32 236.262 297.348C236.262 297.368 236.266 297.384 236.266 297.405C236.268 297.433 236.271 297.466 236.273 297.495C236.274 297.513 236.277 297.531 236.278 297.549C236.279 297.578 236.281 297.609 236.284 297.637C236.285 297.656 236.286 297.676 236.287 297.695C236.291 297.723 236.292 297.751 236.294 297.78C236.296 297.8 236.297 297.82 236.299 297.841C236.3 297.869 236.304 297.893 236.305 297.922C236.306 297.942 236.307 297.965 236.308 297.985C236.311 298.014 236.313 298.04 236.314 298.067C236.315 298.089 236.318 298.11 236.319 298.13C236.321 298.159 236.322 298.181 236.324 298.209C236.326 298.232 236.327 298.252 236.328 298.277C236.33 298.301 236.331 298.328 236.335 298.354C236.336 298.374 236.337 298.399 236.338 298.419C236.339 298.446 236.341 298.472 236.344 298.499C236.345 298.519 236.346 298.544 236.347 298.564C236.349 298.592 236.35 298.619 236.351 298.645C236.355 298.665 236.356 298.688 236.357 298.709C236.358 298.735 236.359 298.761 236.361 298.788C236.362 298.813 236.363 298.831 236.366 298.856C236.367 298.88 236.369 298.911 236.37 298.935C236.371 298.957 236.372 298.978 236.373 298.998C236.375 299.027 236.376 299.051 236.377 299.08C236.381 299.1 236.382 299.124 236.383 299.145C236.384 299.169 236.386 299.2 236.387 299.227C236.388 299.247 236.389 299.269 236.39 299.289C236.392 299.318 236.393 299.348 236.395 299.378C236.396 299.398 236.397 299.412 236.398 299.434C236.399 299.467 236.401 299.5 236.404 299.533C236.405 299.548 236.406 299.56 236.407 299.579C236.409 299.628 236.411 299.675 236.414 299.724C238.878 348.552 201.292 390.134 152.462 392.598Z" fill="#F68B40"/>
<path d="M152.462 392.599C152.419 392.601 152.376 392.603 152.331 392.605C152.376 392.603 152.417 392.601 152.462 392.599ZM152.28 392.608C152.256 392.609 152.229 392.61 152.203 392.612C152.229 392.61 152.254 392.609 152.28 392.608ZM152.001 392.62C151.986 392.621 151.974 392.622 151.96 392.622C151.972 392.622 151.989 392.621 152.001 392.62ZM236.407 299.579C236.406 299.561 236.405 299.549 236.404 299.533C236.405 299.546 236.406 299.565 236.407 299.579ZM236.398 299.434C236.396 299.412 236.396 299.398 236.395 299.378C236.396 299.398 236.396 299.414 236.398 299.434ZM236.39 299.29C236.389 299.27 236.388 299.247 236.387 299.227C236.388 299.247 236.389 299.267 236.39 299.29ZM236.383 299.145C236.382 299.124 236.381 299.1 236.377 299.08C236.381 299.102 236.382 299.123 236.383 299.145ZM236.366 298.856C236.363 298.831 236.362 298.813 236.361 298.788C236.362 298.811 236.363 298.831 236.366 298.856ZM236.357 298.709C236.356 298.688 236.355 298.666 236.351 298.646C236.355 298.668 236.356 298.688 236.357 298.709ZM236.338 298.42C236.337 298.399 236.336 298.375 236.335 298.355C236.336 298.379 236.337 298.397 236.338 298.42ZM236.328 298.277C236.327 298.252 236.326 298.232 236.324 298.209C236.326 298.23 236.327 298.254 236.328 298.277ZM236.319 298.13C236.318 298.11 236.315 298.089 236.314 298.067C236.315 298.088 236.319 298.112 236.319 298.13ZM236.287 297.695C236.286 297.676 236.285 297.656 236.284 297.637C236.285 297.658 236.286 297.676 236.287 297.695ZM236.255 297.26C236.254 297.244 236.253 297.221 236.25 297.206C236.253 297.224 236.254 297.242 236.255 297.26ZM236.243 297.116C236.243 297.1 236.242 297.079 236.239 297.061C236.242 297.079 236.242 297.097 236.243 297.116ZM236.232 296.971C236.231 296.953 236.228 296.935 236.228 296.919C236.229 296.936 236.231 296.953 236.232 296.971ZM236.221 296.827C236.218 296.808 236.217 296.792 236.216 296.774C236.217 296.79 236.218 296.811 236.221 296.827ZM236.208 296.68C236.206 296.662 236.206 296.65 236.205 296.631C236.206 296.647 236.207 296.664 236.208 296.68ZM236.196 296.534C236.195 296.519 236.192 296.503 236.191 296.489C236.192 296.503 236.195 296.518 236.196 296.534ZM236.182 296.387C236.181 296.371 236.181 296.36 236.18 296.345C236.181 296.36 236.181 296.373 236.182 296.387ZM236.171 296.242C236.169 296.23 236.167 296.212 236.167 296.2C236.168 296.214 236.169 296.229 236.171 296.242ZM236.157 296.094C236.155 296.084 236.154 296.07 236.153 296.06C236.154 296.072 236.155 296.084 236.157 296.094ZM236.144 295.949C236.143 295.937 236.141 295.927 236.14 295.915C236.141 295.927 236.141 295.937 236.144 295.949ZM236.115 295.653C236.114 295.644 236.114 295.639 236.113 295.63C236.114 295.636 236.114 295.644 236.115 295.653Z" fill="#C95D31"/>
<path d="M78.0786 278.793C77.1961 278.837 76.3778 278.47 75.6046 277.605C70.3246 271.694 78.7786 255.518 94.4916 241.474C105.913 231.267 118.026 224.997 125.819 224.604C128.748 224.456 131.065 225.138 132.508 226.752C137.793 232.663 119.771 238.135 104.058 252.179C90.641 264.17 83.2437 278.532 78.0786 278.793Z" fill="#FDCD9C"/>
<path d="M72.859 295.701C70.137 295.838 67.8091 293.541 67.6595 290.574C67.5094 287.603 69.5942 285.086 72.3162 284.949C75.0364 284.812 77.3638 287.106 77.5138 290.077C77.6635 293.044 75.5791 295.564 72.859 295.701Z" fill="#FDCD9C"/>
<path d="M146.237 255.043C145.686 255.071 145.08 255.016 144.402 254.861C140.086 253.879 140.977 249.423 140.972 246.246C140.972 245.962 140.976 245.68 140.983 245.401C141.399 246.918 141.897 248.364 142.584 249.9C142.819 250.428 143.294 250.81 143.862 250.925C145.062 251.171 146.042 251.269 146.856 251.228C148.012 251.169 148.891 250.81 149.467 250.159C151.106 248.309 151.28 245.928 151.407 244.193C151.452 243.577 151.518 242.672 151.661 242.336L151.715 242.331C151.897 242.322 152.235 242.345 152.824 242.502C154.562 242.964 156.134 243.85 157.8 244.784C160.538 246.322 163.372 247.914 167.132 247.725C167.66 247.698 168.196 247.634 168.732 247.537C173.765 246.621 174.329 243.544 174.383 242.622C174.543 239.873 172.092 237.173 168.428 236.058C166.431 235.451 164.469 235.266 162.573 235.088C160.985 234.939 159.457 234.796 158.021 234.408C158.444 234.002 158.901 233.619 159.372 233.228C161.404 231.53 163.936 229.414 163.571 224.839C163.503 223.974 162.826 223.282 161.962 223.196C161.646 223.161 161.313 223.156 160.97 223.173C160.346 223.204 159.695 223.319 159.034 223.5C159.664 222.336 161.894 221.603 164.028 221.496C165.73 221.41 167.371 221.722 168.084 222.532C170.44 225.197 160.735 229.087 163.526 232.345C165.388 234.519 168.473 235.101 170.86 236.017C174.058 237.244 181.214 239.284 180.087 242.876C179.045 246.197 175.524 249.312 172.091 249.823C171.521 249.907 170.957 249.96 170.397 249.988C167.059 250.157 163.874 249.396 160.652 248.497C158.893 248.007 157.369 247.486 155.974 247.556C154.658 247.622 153.458 248.217 152.286 249.858C150.554 252.284 149.236 254.891 146.237 255.043ZM153.592 226.119C153.719 225.761 153.849 225.411 153.979 225.072C155.993 224.207 157.677 223.817 158.483 223.663C156.799 224.205 155.075 225.124 153.592 226.119Z" fill="#F68B40"/>
<path d="M131.62 322.167C132.077 331.212 128.593 338.739 123.842 338.979C119.089 339.218 114.865 332.08 114.408 323.035C113.952 313.99 117.436 306.463 122.189 306.223C126.94 305.983 131.164 313.121 131.62 322.167Z" fill="#373435"/>
<path d="M129.36 315.994C129.557 319.889 128.1 323.129 126.107 323.23C124.115 323.33 122.339 320.253 122.142 316.359C121.946 312.461 123.403 309.224 125.395 309.123C127.388 309.022 129.164 312.097 129.36 315.994Z" fill="#FEFEFE"/>
<path d="M121.014 320.927C121.085 322.338 120.557 323.51 119.836 323.547C119.114 323.583 118.473 322.47 118.402 321.059C118.331 319.65 118.856 318.479 119.578 318.443C120.3 318.406 120.943 319.518 121.014 320.927Z" fill="#FEFEFE"/>
<path d="M125.295 326.938C125.366 328.35 124.838 329.521 124.119 329.557C123.397 329.594 122.754 328.481 122.683 327.07C122.612 325.661 123.139 324.49 123.861 324.453C124.581 324.417 125.224 325.529 125.295 326.938Z" fill="#FEFEFE"/>
<path d="M188.884 319.277C189.341 328.322 185.859 335.849 181.105 336.089C176.353 336.329 172.131 329.19 171.674 320.145C171.217 311.1 174.7 303.573 179.452 303.333C184.206 303.093 188.428 310.231 188.884 319.277Z" fill="#373435"/>
<path d="M186.625 313.104C186.821 316.999 185.366 320.239 183.373 320.34C181.379 320.44 179.604 317.363 179.408 313.468C179.211 309.571 180.667 306.333 182.661 306.233C184.654 306.132 186.428 309.207 186.625 313.104Z" fill="#FEFEFE"/>
<path d="M178.277 318.038C178.348 319.449 177.821 320.62 177.101 320.656C176.379 320.693 175.736 319.58 175.665 318.169C175.594 316.76 176.122 315.589 176.843 315.553C177.563 315.516 178.206 316.628 178.277 318.038Z" fill="#FEFEFE"/>
<path d="M182.558 324.048C182.63 325.46 182.105 326.63 181.383 326.667C180.662 326.703 180.02 325.591 179.949 324.18C179.878 322.771 180.405 321.6 181.125 321.563C181.847 321.527 182.487 322.639 182.558 324.048Z" fill="#FEFEFE"/>
<path d="M126.941 339.625C127.03 341.375 123.872 342.957 119.885 343.159C115.899 343.36 112.595 342.103 112.506 340.354C112.418 338.603 115.579 337.02 119.565 336.819C123.551 336.618 126.853 337.874 126.941 339.625Z" fill="#D86987"/>
<path d="M192.52 336.316C192.608 338.065 189.45 339.648 185.464 339.849C181.478 340.05 178.176 338.794 178.088 337.044C177.999 335.293 181.157 333.71 185.144 333.509C189.13 333.308 192.431 334.564 192.52 336.316Z" fill="#D86987"/>
<path d="M120.066 298.754C120.025 298.748 119.374 298.65 118.412 298.699C117.221 298.761 115.538 299.038 113.966 300.049C112.389 301.053 110.981 302.835 110.441 305.626C110.349 306.095 110.653 306.552 111.124 306.644C111.593 306.738 112.05 306.432 112.145 305.961C112.625 303.57 113.703 302.293 114.905 301.506C116.11 300.726 117.498 300.48 118.499 300.432C118.901 300.412 119.239 300.423 119.47 300.436L119.733 300.459L119.808 300.47C120.279 300.542 120.723 300.215 120.795 299.741C120.867 299.268 120.54 298.826 120.068 298.754H120.066Z" fill="#373435"/>
<path d="M180.081 297.428L180.154 297.41C180.323 297.372 180.773 297.289 181.378 297.258C182.377 297.205 183.783 297.31 185.059 297.965C186.336 298.627 187.539 299.788 188.257 302.12C188.397 302.577 188.882 302.837 189.341 302.696C189.799 302.557 190.058 302.071 189.919 301.615C189.098 298.892 187.518 297.261 185.848 296.421C184.18 295.573 182.478 295.467 181.291 295.525C180.326 295.573 179.691 295.736 179.648 295.747C179.184 295.866 178.905 296.338 179.025 296.802C179.144 297.267 179.616 297.547 180.081 297.428Z" fill="#373435"/>
<path d="M155.455 342.514C155.561 344.608 154.629 346.358 153.379 346.421C152.125 346.484 151.026 344.837 150.92 342.743C150.815 340.647 151.742 338.897 152.996 338.834C154.246 338.771 155.35 340.418 155.455 342.514Z" fill="#373435"/>
<path d="M146.811 250.332C146.072 250.369 145.166 250.276 144.042 250.047C143.759 249.988 143.52 249.797 143.401 249.534C142.33 247.133 141.724 244.945 141.171 242.33C139.905 242.669 138.887 243.651 137.819 244.68C136.429 246.018 134.99 247.403 132.871 247.509C132.69 247.519 132.501 247.518 132.311 247.507C131.87 247.48 131.513 247.137 131.471 246.697C131.265 244.561 133.619 242.24 136.111 239.782C138.006 237.914 140.152 235.797 140.254 234.45C141.345 220.087 143.559 218.142 145.369 218.05C148.379 217.898 150.997 224.7 152.168 228.303C154.401 226.414 158.061 224.217 161.015 224.068C161.311 224.053 161.598 224.059 161.875 224.088C162.304 224.132 162.643 224.477 162.679 224.911C163.005 229.023 160.865 230.812 158.795 232.54C157.93 233.262 157.102 233.953 156.424 234.82C158.327 235.59 160.357 235.782 162.487 235.983C164.34 236.156 166.257 236.337 168.166 236.917C171.435 237.911 173.623 240.236 173.487 242.571C173.431 243.539 172.84 245.879 168.57 246.654C168.059 246.749 167.568 246.803 167.086 246.828C163.583 247.005 160.867 245.479 158.239 244.003C156.6 243.08 154.904 242.127 153.054 241.634C152.492 241.484 152.027 241.418 151.67 241.436C150.858 241.477 150.674 241.905 150.512 244.128C150.387 245.826 150.232 247.94 148.795 249.564C148.38 250.035 147.73 250.286 146.811 250.332Z" fill="#79A942"/>
<path d="M145.324 217.153C142.003 217.321 140.276 222.312 139.36 234.383C139.284 235.395 136.996 237.653 135.483 239.144C132.833 241.755 130.332 244.222 130.578 246.783C130.663 247.664 131.374 248.35 132.258 248.403C132.482 248.417 132.702 248.418 132.917 248.407C135.37 248.283 137.001 246.712 138.443 245.326C139.165 244.631 139.829 243.99 140.527 243.576C141.036 245.797 141.627 247.761 142.584 249.9C142.819 250.428 143.294 250.811 143.862 250.925C145.062 251.171 146.042 251.269 146.856 251.228C148.012 251.169 148.891 250.81 149.467 250.159C151.106 248.309 151.28 245.929 151.407 244.193C151.452 243.577 151.518 242.672 151.661 242.336L151.716 242.331C151.897 242.322 152.236 242.346 152.824 242.502C154.563 242.964 156.134 243.85 157.801 244.784C160.538 246.322 163.372 247.914 167.132 247.725C167.66 247.698 168.197 247.634 168.732 247.538C173.765 246.621 174.33 243.544 174.383 242.622C174.543 239.873 172.092 237.173 168.428 236.058C166.431 235.451 164.469 235.267 162.573 235.088C160.986 234.939 159.457 234.796 158.021 234.408C158.444 234.002 158.901 233.619 159.372 233.228C161.404 231.53 163.937 229.414 163.571 224.839C163.503 223.974 162.826 223.282 161.963 223.197C161.646 223.161 161.313 223.156 160.97 223.173C158.24 223.311 154.975 225.053 152.619 226.808C151.058 222.322 148.523 216.992 145.324 217.153ZM145.414 218.946C148.441 218.793 151.736 229.925 151.736 229.925C153.649 227.938 157.951 225.123 161.06 224.965C161.309 224.953 161.551 224.957 161.783 224.98C162.24 230.717 157.367 231.295 155.092 235.19C159.095 237.289 163.571 236.459 167.906 237.777C173.277 239.407 174.79 244.613 168.411 245.771C167.94 245.858 167.484 245.91 167.042 245.932C161.648 246.204 158.2 242.077 153.286 240.768C152.611 240.587 152.066 240.519 151.625 240.541C148.351 240.706 150.791 245.955 148.124 248.97C147.851 249.278 147.343 249.408 146.765 249.437C145.885 249.482 144.839 249.293 144.221 249.167C143.039 246.522 142.446 244.126 141.876 241.311C138.005 241.522 136.447 246.432 132.826 246.615L132.364 246.611C132.045 243.293 140.887 237.99 141.149 234.518C142.037 222.82 143.681 219.033 145.414 218.946Z" fill="#567C35"/>
<path d="M167.941 239.341C163.511 239.565 158.738 237.717 154.719 235.573C154.692 235.04 155.137 234.491 155.655 234.352C155.454 234.614 155.265 234.893 155.092 235.19C159.094 237.289 163.571 236.459 167.906 237.777C167.92 237.781 167.932 237.784 167.947 237.789C167.951 237.789 167.953 237.791 167.957 237.791C167.97 237.794 167.982 237.8 167.997 237.804C168.011 237.808 168.028 237.814 168.042 237.818C168.042 237.818 168.042 237.818 168.042 237.819C168.963 238.112 169.762 238.511 170.427 238.976C169.616 239.181 168.786 239.299 167.941 239.341Z" fill="#66913B"/>
<path d="M155.092 235.19C155.265 234.893 155.453 234.614 155.655 234.352C155.657 234.35 155.661 234.349 155.665 234.349C155.461 234.613 155.267 234.888 155.092 235.19Z" fill="#4D6E31"/>
<path d="M152.396 230.009C152.48 229.692 152.566 229.377 152.653 229.07C154.652 227.352 157.857 225.415 160.453 225.029C157.867 226.781 154.692 227.998 152.396 230.009Z" fill="#66913B"/>
<path d="M147.956 249.093C148.659 245.566 148.664 241.142 150.747 239.964C151.151 239.853 151.542 239.79 151.924 239.771C154.207 239.656 156.142 241.086 158.058 242.874C156.549 242.032 155.008 241.227 153.286 240.768C152.611 240.587 152.065 240.519 151.625 240.541C148.95 240.676 150.087 244.2 149.143 247.13C148.93 247.789 148.613 248.416 148.124 248.971L147.956 249.093Z" fill="#66913B"/>
<path d="M158.06 242.874C156.552 242.034 155.008 241.226 153.286 240.768C155.008 241.226 156.549 242.032 158.058 242.874C158.06 242.874 158.06 242.874 158.06 242.874Z" fill="#4D6E31"/>
<path d="M143.303 246.832C142.695 245.058 142.281 243.308 141.887 241.357C141.884 241.343 141.88 241.327 141.876 241.311C141.87 241.311 141.863 241.312 141.858 241.312C141.854 241.312 141.85 241.312 141.846 241.312C141.843 241.313 141.841 241.313 141.839 241.315C141.833 241.315 141.829 241.315 141.823 241.315C140.33 241.413 139.18 242.214 138.122 243.163C138.841 241.812 139.69 240.401 140.644 240.353C141.019 240.334 141.411 240.525 141.816 241.013C143.592 242.294 143.651 244.441 143.303 246.832Z" fill="#66913B"/>
<path d="M138.12 243.165C138.12 243.165 138.12 243.165 138.122 243.163C139.18 242.214 140.33 241.413 141.823 241.316C140.327 241.414 139.178 242.216 138.12 243.165Z" fill="#4D6E31"/>
<path d="M145.943 242.901C145.425 242.927 145.023 242.528 144.98 241.447C144.933 240.274 145.435 239.122 144.927 237.884C144.847 237.882 144.77 237.882 144.694 237.886C143.938 237.924 143.345 238.291 142.756 238.658C142.167 239.025 141.583 239.392 140.839 239.43C140.702 239.437 140.561 239.433 140.411 239.414C140.07 237.874 141.519 235.936 142.82 235.871C142.848 235.869 142.877 235.868 142.906 235.868C142.955 235.87 143.004 235.867 143.051 235.865C145.053 235.764 144.106 232.962 144.106 232.962C144.173 231.81 144.365 228.721 145.482 227.845C145.277 231.852 145.488 234.783 145.511 235.085C145.523 235.391 145.564 236.535 146.385 237.283C146.824 237.686 147.401 237.892 148.003 237.862C149.283 237.797 150.373 236.628 150.91 235.936C151.087 235.709 151.206 235.439 151.258 235.154C151.449 234.09 151.657 233.07 151.88 232.097C152.07 231.889 152.298 231.711 152.606 231.625C152.752 231.585 152.875 231.565 152.979 231.559C154.046 231.506 153.275 233.084 152.794 233.68C152.1 234.541 150.891 234.938 152.045 236.051C152.87 236.844 154.229 236.462 153.936 238.292C153.873 238.299 153.811 238.304 153.749 238.308C153.289 238.331 152.832 238.231 152.375 238.132C151.918 238.032 151.461 237.932 151.002 237.955C150.796 237.966 150.592 238.001 150.387 238.07C148.933 238.565 148.634 240.16 147.933 241.312C147.409 242.175 146.587 242.868 145.943 242.901Z" fill="#66913B"/>
<path d="M164.56 210.9C163.239 210.967 161.744 209.899 160.839 208.244C160.32 207.298 160.055 206.27 160.092 205.355C160.133 204.285 160.592 203.434 161.351 203.02C161.64 202.862 161.961 202.774 162.301 202.757C163.622 202.69 165.117 203.757 166.023 205.413C167.19 207.547 166.964 209.842 165.51 210.635C165.221 210.795 164.9 210.883 164.56 210.9Z" fill="#8FC74A"/>
<path d="M162.255 201.86C161.778 201.884 161.329 202.011 160.921 202.234C159.878 202.802 159.248 203.928 159.194 205.32C159.152 206.396 159.458 207.586 160.05 208.672C161.134 210.656 162.921 211.882 164.605 211.797C165.082 211.773 165.531 211.646 165.941 211.423C167.865 210.372 168.24 207.603 166.81 204.983C165.727 203.001 163.94 201.775 162.255 201.86ZM162.346 203.652C163.298 203.604 164.482 204.466 165.235 205.843C166.144 207.511 166.075 209.305 165.079 209.847C164.906 209.945 164.714 209.994 164.515 210.005C163.562 210.053 162.378 209.19 161.626 207.814C160.713 206.147 160.784 204.35 161.781 203.808C161.954 203.713 162.144 203.663 162.346 203.652Z" fill="#567C35"/>
<path d="M147.301 234.947C147.301 234.947 144.977 204.719 162.091 203.657C162.091 203.657 161.137 208.497 165.389 209.679C165.389 209.679 153.703 211.466 149.492 234.837C149.492 234.837 147.4 237.536 147.301 234.947Z" fill="#8FC74A"/>
<path d="M147.957 236.964C147.597 236.983 147.253 236.863 146.99 236.621C146.621 236.281 146.433 235.762 146.404 234.982C146.347 234.251 145.052 216.173 152.696 207.388C155.165 204.55 158.308 202.993 162.035 202.762L162.046 202.762C162.319 202.748 162.584 202.86 162.764 203.065C162.947 203.274 163.024 203.555 162.972 203.827C162.94 203.993 162.244 207.873 165.63 208.814C166.038 208.928 166.311 209.309 166.286 209.733C166.26 210.156 165.944 210.501 165.526 210.565C165.419 210.585 154.4 212.654 150.374 234.996L150.202 235.388C149.845 235.845 148.916 236.916 147.957 236.964Z" fill="#8FC74A"/>
<path d="M162 201.865L161.98 201.866C158.002 202.113 154.651 203.773 152.02 206.798C144.133 215.864 145.452 234.305 145.511 235.085C145.523 235.39 145.564 236.535 146.385 237.283C146.824 237.686 147.401 237.892 148.002 237.862C149.283 237.797 150.373 236.628 150.91 235.936C151.087 235.709 151.206 235.438 151.258 235.154C155.148 213.567 165.578 211.468 165.683 211.448C166.508 211.302 167.131 210.603 167.171 209.767C167.21 208.929 166.677 208.174 165.871 207.949C163.294 207.233 163.787 204.332 163.852 204.003C163.959 203.457 163.808 202.894 163.441 202.475C163.079 202.062 162.549 201.837 162 201.865ZM162.091 203.657C162.091 203.657 161.137 208.497 165.389 209.679C165.389 209.679 153.703 211.466 149.492 234.837C149.492 234.837 148.562 236.036 147.912 236.069C147.588 236.086 147.333 235.81 147.301 234.947C147.301 234.947 144.977 204.719 162.091 203.657Z" fill="#567C35"/>
<path d="M147.912 236.069C147.904 236.069 147.898 236.07 147.889 236.07C147.575 236.072 147.332 235.79 147.301 234.947C147.301 234.947 147.29 234.794 147.273 234.519C148.224 223.422 153.312 212.514 162.244 206.609C162.603 207.846 163.45 209.122 165.344 209.667C165.346 209.667 165.346 209.667 165.346 209.667C165.352 209.668 165.361 209.67 165.367 209.672C165.375 209.675 165.382 209.677 165.389 209.679C165.389 209.679 153.703 211.466 149.492 234.837C149.492 234.837 149.492 234.839 149.489 234.839C149.463 234.875 149.052 235.396 148.593 235.751C148.365 235.926 148.124 236.058 147.912 236.069Z" fill="#78A841"/>
<path d="M165.344 209.667C163.45 209.122 162.603 207.846 162.244 206.609C162.246 206.609 162.246 206.609 162.248 206.607C162.607 207.846 163.45 209.122 165.344 209.667Z" fill="#4D6E31"/>
<path d="M152.503 213.173C152.371 213.179 152.249 213.124 152.132 212.995C151.342 212.109 152.609 209.684 154.964 207.58C156.678 206.048 158.495 205.108 159.663 205.049C160.101 205.027 160.448 205.128 160.664 205.371C161.458 206.258 158.755 207.078 156.398 209.184C154.388 210.982 153.278 213.134 152.503 213.173Z" fill="#C5DF9D"/>
<path d="M151.551 215.776C151.265 215.79 151.015 215.444 150.993 215.001C150.971 214.56 151.185 214.19 151.47 214.175C151.757 214.161 152.008 214.508 152.03 214.949C152.053 215.391 151.838 215.761 151.551 215.776Z" fill="#C5DF9D"/>
<path d="M143.891 226.298C143.88 226.299 143.87 226.299 143.862 226.298C143.582 226.232 143.625 225.002 143.958 223.548C144.282 222.141 144.756 221.04 145.039 221.025C145.049 221.025 145.06 221.026 145.068 221.028C145.347 221.093 145.303 222.325 144.969 223.779C144.648 225.185 144.174 226.284 143.891 226.298Z" fill="#B5CD92"/>
<path d="M166.7 244.101C165.902 244.142 165.15 244.094 164.729 244.054C163.769 243.961 162.522 243.748 161.696 243.275C160.713 242.709 159.877 241.935 158.903 241.349C157.444 240.47 159.119 239.69 159.119 239.69C159.184 239.681 159.249 239.673 159.313 239.67C160.234 239.623 160.747 240.395 161.57 240.764C162.482 241.177 163.408 241.215 164.436 241.219C164.483 241.22 164.534 241.218 164.587 241.215C164.924 241.198 165.366 241.129 165.849 241.055C166.331 240.984 166.856 240.91 167.359 240.885C168.476 240.829 169.493 241.013 169.721 241.997C170.085 243.581 168.302 244.021 166.7 244.101Z" fill="#B5CD92"/>
<path d="M163.164 260.898C162.143 260.949 161.29 260.457 161.257 259.797C161.224 259.138 162.022 258.56 163.044 258.509C164.066 258.457 164.918 258.951 164.951 259.61C164.985 260.271 164.186 260.847 163.164 260.898Z" fill="#F68B40"/>
<path d="M172.532 260.425C171.513 260.476 170.658 259.984 170.625 259.323C170.591 258.664 171.392 258.087 172.411 258.035C173.433 257.984 174.288 258.478 174.322 259.137C174.355 259.797 173.554 260.373 172.532 260.425Z" fill="#F68B40"/>
<path d="M185.455 257.377C184.434 257.429 183.581 256.936 183.547 256.275C183.514 255.617 184.313 255.039 185.334 254.987C186.354 254.936 187.209 255.43 187.242 256.089C187.276 256.749 186.475 257.326 185.455 257.377Z" fill="#F68B40"/>
<path d="M194.378 242.144C193.359 242.196 192.504 241.703 192.471 241.043C192.437 240.382 193.238 239.806 194.258 239.755C195.28 239.703 196.132 240.196 196.165 240.856C196.198 241.517 195.4 242.093 194.378 242.144Z" fill="#F68B40"/>
<path d="M186.826 233.333C185.805 233.385 184.949 232.892 184.916 232.231C184.883 231.573 185.684 230.994 186.705 230.943C187.727 230.891 188.58 231.386 188.613 232.044C188.646 232.705 187.848 233.281 186.826 233.333Z" fill="#F68B40"/>
<path d="M183.944 249.675C182.924 249.726 182.07 249.232 182.036 248.571C182.003 247.913 182.804 247.334 183.823 247.283C184.845 247.231 185.698 247.726 185.731 248.385C185.764 249.046 184.966 249.623 183.944 249.675Z" fill="#F68B40"/>
<path d="M196.693 251.299C195.673 251.35 194.818 250.857 194.785 250.197C194.751 249.538 195.553 248.96 196.572 248.908C197.594 248.857 198.449 249.352 198.482 250.01C198.515 250.671 197.714 251.247 196.693 251.299Z" fill="#F68B40"/>
<path d="M168.25 255.13C167.23 255.181 166.378 254.689 166.344 254.028C166.311 253.367 167.109 252.792 168.129 252.74C169.152 252.689 170.006 253.181 170.039 253.842C170.072 254.502 169.273 255.078 168.25 255.13Z" fill="#F68B40"/>
<path d="M176.027 234.519C175.007 234.571 174.152 234.077 174.119 233.418C174.085 232.757 174.887 232.181 175.906 232.13C176.928 232.078 177.781 232.571 177.814 233.231C177.847 233.89 177.048 234.468 176.027 234.519Z" fill="#F68B40"/>
<path d="M153.274 260.2C152.252 260.251 151.399 259.758 151.366 259.098C151.333 258.439 152.131 257.861 153.153 257.809C154.174 257.758 155.027 258.252 155.061 258.911C155.094 259.572 154.295 260.148 153.274 260.2Z" fill="#F68B40"/>
<path d="M134.801 255.62C133.78 255.672 132.925 255.18 132.892 254.519C132.858 253.86 133.659 253.282 134.68 253.23C135.7 253.179 136.556 253.674 136.589 254.332C136.622 254.993 135.821 255.569 134.801 255.62Z" fill="#F68B40"/>
<path d="M131.933 238.074C130.911 238.125 130.057 237.633 130.023 236.972C129.99 236.314 130.791 235.736 131.813 235.684C132.832 235.632 133.687 236.127 133.72 236.786C133.753 237.446 132.952 238.023 131.933 238.074Z" fill="#F68B40"/>
<path d="M122.785 251.563C121.765 251.615 120.911 251.123 120.877 250.46C120.844 249.801 121.645 249.223 122.664 249.172C123.686 249.12 124.539 249.615 124.572 250.273C124.605 250.936 123.806 251.512 122.785 251.563Z" fill="#F68B40"/>
<path d="M152.709 333.145C151.688 333.197 150.773 331.509 150.739 330.849C150.706 330.19 151.507 329.612 152.529 329.56C153.548 329.509 154.403 330.003 154.436 330.662C154.469 331.323 153.729 333.093 152.709 333.145Z" fill="#F68B40"/>
</g>
<path fill-rule="evenodd" clip-rule="evenodd" d="M71.2082 358.487C78.59 350.352 85.3977 353.54 87.4779 361.329C88.4625 360.518 89.4108 359.67 90.4267 358.917C96.3568 354.5 102.648 358.864 103.001 365.093C103.188 368.419 102.513 371.841 101.914 375.161C100.867 380.972 99.6892 386.771 98.3225 392.515C97.8599 394.46 96.8742 396.375 95.7441 398.04C92.6918 402.547 86.9938 402.759 83.4705 398.545C82.3672 397.227 81.6193 395.612 80.5867 393.936C78.6281 396.896 76.1136 399.126 71.9671 397.823C68.2881 396.67 66.2551 394.056 65.0188 390.35C64.5562 390.993 64.2221 391.45 63.8952 391.913C60.692 396.443 55.1501 396.631 51.428 392.451C48.9396 389.659 48.3685 386.319 48.9539 382.915C50.1452 376.001 51.5954 369.13 53.1571 362.288C53.6935 359.941 54.6489 357.613 55.8232 355.507C57.1525 353.128 59.4682 351.667 62.1271 351.183C65.9425 350.492 69.1789 352.693 70.6197 356.65C70.8336 357.236 71.0014 357.839 71.2082 358.487ZM67.9952 360.595C67.9725 360.069 68.0133 359.529 67.9136 359.015C67.2559 355.654 64.4553 352.624 60.4237 355.335C58.6462 356.53 57.6332 358.174 57.1204 360.105C55.6188 365.754 54.0699 371.401 52.8956 377.125C52.2686 380.186 52.2089 383.399 52.2032 386.547C52.1971 389.05 53.7403 390.797 55.9842 391.768C58.3287 392.783 59.8533 392.501 61.0326 390.254C62.4257 387.593 63.6227 384.737 64.3359 381.828C65.4576 377.235 66.1058 372.527 66.957 367.865C67.3946 365.459 68.0889 360.614 67.9952 360.595ZM84.1455 363.269C84.1209 362.741 84.1667 362.202 84.0635 361.691C83.3881 358.385 80.6071 355.261 76.5641 358.008C74.9582 359.102 73.892 360.536 73.4313 362.278C71.8201 368.379 70.23 374.492 68.9363 380.665C68.3546 383.435 68.3554 386.36 68.3448 389.215C68.3376 391.756 70.3684 394.027 72.7824 394.682C74.5308 395.157 76.1983 394.96 76.9924 393.216C78.3605 390.211 79.7835 387.164 80.5965 383.984C81.7183 379.576 82.3015 375.027 83.1148 370.54C83.5514 368.132 84.2373 363.286 84.1455 363.269ZM84.023 390.076C84.2052 395.029 85.9185 397.451 88.8306 398.145C90.4887 398.54 91.9922 398.266 92.7428 396.701C94.0169 394.041 95.3854 391.344 96.0945 388.505C97.3085 383.638 98.1116 378.658 98.9552 373.705C99.4137 371.015 99.8982 368.269 99.8468 365.559C99.761 360.94 95.8926 358.955 92.2522 361.635C90.9415 362.602 89.7188 364.207 89.2762 365.76C87.5792 371.711 86.1263 377.738 84.7725 383.781C84.2252 386.218 84.1685 388.766 84.023 390.076Z" fill="#CA6931"/>
<path fill-rule="evenodd" clip-rule="evenodd" d="M66.9569 367.865C66.1058 372.526 65.4576 377.235 64.3358 381.827C63.6226 384.737 62.4256 387.593 61.0325 390.254C59.8533 392.501 58.3286 392.783 55.9842 391.768C53.7403 390.797 52.1971 389.049 52.2031 386.547C52.2088 383.399 52.2685 380.186 52.8956 377.125C54.0699 371.401 55.6187 365.754 57.1203 360.105C57.6332 358.174 58.6461 356.53 60.4236 355.334C64.4552 352.623 67.2559 355.653 67.9135 359.015C68.0133 359.529 67.9725 360.069 67.9951 360.594C68.0889 360.614 67.3946 365.459 66.9569 367.865Z" fill="#F8A04C"/>
<path fill-rule="evenodd" clip-rule="evenodd" d="M83.1148 370.54C82.3014 375.027 81.7182 379.576 80.5965 383.984C79.7835 387.164 78.3605 390.211 76.9923 393.217C76.1982 394.96 74.5307 395.157 72.7823 394.682C70.3683 394.027 68.3376 391.756 68.3447 389.215C68.3553 386.36 68.3546 383.435 68.9362 380.665C70.23 374.492 71.82 368.379 73.4312 362.278C73.892 360.536 74.9582 359.102 76.5641 358.008C80.6071 355.261 83.388 358.385 84.0634 361.691C84.1666 362.202 84.1209 362.741 84.1454 363.269C84.2373 363.286 83.5513 368.133 83.1148 370.54Z" fill="#F8A04C"/>
<path fill-rule="evenodd" clip-rule="evenodd" d="M84.0229 390.076C84.1685 388.766 84.2252 386.218 84.7724 383.781C86.1263 377.738 87.5791 371.711 89.2761 365.76C89.7187 364.207 90.9414 362.602 92.2521 361.635C95.8926 358.955 99.7609 360.94 99.8467 365.559C99.8981 368.269 99.4136 371.015 98.9551 373.705C98.1115 378.658 97.3084 383.638 96.0944 388.505C95.3853 391.344 94.0168 394.041 92.7427 396.701C91.9921 398.266 90.4886 398.54 88.8305 398.145C85.9184 397.451 84.2051 395.029 84.0229 390.076Z" fill="#F8A04C"/>
<path fill-rule="evenodd" clip-rule="evenodd" d="M57.3298 382.47C55.971 382.34 55.2314 382.746 55.3213 384.304C55.4581 386.656 56.4926 388.252 58.0044 388.152C59.0056 388.087 60.9196 385.511 60.6614 384.018C60.3485 382.196 58.5887 382.67 57.3298 382.47Z" fill="#FDCD9C"/>
<path fill-rule="evenodd" clip-rule="evenodd" d="M73.5588 385.278C72.2254 385.126 71.437 385.47 71.5213 387.053C71.6483 389.391 72.6774 391.001 74.1809 390.927C75.1957 390.874 77.4238 387.79 76.8308 386.694C76.3356 385.778 73.631 385.126 73.5588 385.278Z" fill="#FDCD9C"/>
<path fill-rule="evenodd" clip-rule="evenodd" d="M87.0262 390.782C86.8557 389.349 87.389 388.634 88.8679 388.762C89.4987 388.816 90.1492 388.772 90.7592 388.912C92.5647 389.336 92.751 389.727 92.09 391.439C91.9025 391.927 91.7774 392.495 91.4444 392.86C90.8998 393.455 90.1095 394.414 89.5996 394.311C88.8097 394.156 88.0595 393.322 87.5031 392.61C87.1482 392.155 87.1717 391.4 87.0262 390.782Z" fill="#FDCD9C"/>
<path fill-rule="evenodd" clip-rule="evenodd" d="M225.384 356.65C226.826 352.693 230.061 350.492 233.877 351.183C236.536 351.667 238.852 353.128 240.182 355.507C241.355 357.613 242.311 359.941 242.848 362.288C244.409 369.13 245.859 376.001 247.051 382.915C247.636 386.319 247.065 389.659 244.577 392.451C240.854 396.631 235.312 396.443 232.109 391.913C231.782 391.45 231.448 390.993 230.985 390.35C229.749 394.056 227.716 396.67 224.037 397.823C219.891 399.126 217.377 396.896 215.418 393.936C214.385 395.612 213.637 397.227 212.534 398.545C209.01 402.759 203.312 402.547 200.26 398.04C199.13 396.375 198.144 394.46 197.681 392.515C196.315 386.771 195.137 380.972 194.091 375.161C193.491 371.841 192.817 368.419 193.004 365.093C193.356 358.864 199.648 354.5 205.578 358.917C206.593 359.67 207.542 360.518 208.526 361.329C210.607 353.54 217.415 350.352 224.796 358.487C225.003 357.839 225.171 357.236 225.384 356.65ZM229.048 367.865C229.898 372.527 230.547 377.235 231.669 381.828C232.382 384.737 233.578 387.593 234.972 390.254C236.151 392.501 237.675 392.783 240.021 391.768C242.263 390.797 243.807 389.05 243.801 386.547C243.795 383.399 243.736 380.186 243.109 377.125C241.934 371.401 240.386 365.754 238.884 360.105C238.371 358.174 237.358 356.53 235.58 355.335C231.549 352.624 228.749 355.654 228.09 359.015C227.99 359.529 228.032 360.069 228.01 360.595C227.916 360.614 228.61 365.459 229.048 367.865ZM212.889 370.54C213.703 375.027 214.286 379.576 215.408 383.984C216.221 387.164 217.645 390.211 219.012 393.216C219.807 394.96 221.474 395.157 223.222 394.682C225.636 394.027 227.668 391.756 227.659 389.215C227.648 386.36 227.65 383.435 227.069 380.665C225.774 374.492 224.184 368.379 222.573 362.278C222.112 360.536 221.046 359.102 219.44 358.008C215.397 355.261 212.616 358.385 211.941 361.691C211.837 362.202 211.883 362.741 211.859 363.269C211.768 363.286 212.454 368.132 212.889 370.54ZM211.232 383.781C209.878 377.738 208.425 371.711 206.728 365.76C206.285 364.207 205.062 362.602 203.752 361.635C200.111 358.955 196.243 360.94 196.157 365.559C196.106 368.269 196.591 371.015 197.049 373.705C197.893 378.658 198.697 383.638 199.909 388.505C200.619 391.344 201.988 394.041 203.261 396.701C204.013 398.266 205.515 398.54 207.173 398.145C210.085 397.451 211.799 395.029 211.982 390.076C211.836 388.766 211.779 386.218 211.232 383.781Z" fill="#CA6931"/>
<path fill-rule="evenodd" clip-rule="evenodd" d="M228.01 360.594C228.032 360.069 227.991 359.529 228.091 359.015C228.749 355.653 231.55 352.623 235.581 355.334C237.358 356.53 238.372 358.174 238.885 360.105C240.386 365.754 241.935 371.401 243.109 377.125C243.736 380.186 243.795 383.399 243.802 386.547C243.808 389.049 242.264 390.797 240.021 391.768C237.676 392.783 236.151 392.501 234.972 390.254C233.579 387.593 232.382 384.737 231.669 381.827C230.547 377.235 229.898 372.526 229.048 367.865C228.61 365.459 227.916 360.614 228.01 360.594Z" fill="#F8A04C"/>
<path fill-rule="evenodd" clip-rule="evenodd" d="M211.859 363.269C211.884 362.741 211.838 362.202 211.941 361.691C212.616 358.385 215.398 355.261 219.441 358.008C221.046 359.102 222.112 360.536 222.574 362.278C224.185 368.379 225.774 374.492 227.069 380.665C227.65 383.435 227.649 386.36 227.659 389.215C227.668 391.756 225.636 394.027 223.222 394.682C221.474 395.157 219.807 394.96 219.013 393.217C217.645 390.211 216.222 387.164 215.408 383.984C214.287 379.576 213.703 375.027 212.889 370.54C212.454 368.133 211.768 363.286 211.859 363.269Z" fill="#F8A04C"/>
<path fill-rule="evenodd" clip-rule="evenodd" d="M207.173 398.145C205.516 398.54 204.013 398.266 203.262 396.701C201.988 394.041 200.619 391.344 199.909 388.505C198.697 383.638 197.893 378.658 197.049 373.705C196.591 371.015 196.106 368.269 196.158 365.559C196.243 360.94 200.111 358.955 203.752 361.635C205.062 362.602 206.286 364.207 206.728 365.76C208.425 371.711 209.878 377.738 211.232 383.781C211.779 386.218 211.836 388.766 211.982 390.076C211.799 395.029 210.085 397.451 207.173 398.145Z" fill="#F8A04C"/>
<path fill-rule="evenodd" clip-rule="evenodd" d="M238.674 382.47C237.416 382.67 235.656 382.196 235.344 384.018C235.084 385.511 236.998 388.087 238.001 388.152C239.512 388.252 240.546 386.656 240.683 384.304C240.773 382.746 240.033 382.34 238.674 382.47Z" fill="#FDCD9C"/>
<path fill-rule="evenodd" clip-rule="evenodd" d="M219.174 386.694C218.581 387.79 220.809 390.874 221.823 390.927C223.327 391.001 224.356 389.391 224.484 387.053C224.567 385.47 223.779 385.126 222.446 385.278C222.374 385.126 219.669 385.778 219.174 386.694Z" fill="#FDCD9C"/>
<path fill-rule="evenodd" clip-rule="evenodd" d="M208.979 390.782C209.149 389.349 208.616 388.634 207.137 388.762C206.506 388.816 205.856 388.772 205.245 388.912C203.439 389.336 203.253 389.727 203.915 391.439C204.102 391.927 204.227 392.495 204.561 392.86C205.105 393.455 205.894 394.414 206.404 394.311C207.195 394.156 207.945 393.322 208.501 392.61C208.857 392.155 208.833 391.4 208.979 390.782Z" fill="#FDCD9C"/>
<path d="M119.824 343.183C123.966 343.183 127.324 341.756 127.324 339.996C127.324 338.236 123.966 336.809 119.824 336.809C115.682 336.809 112.324 338.236 112.324 339.996C112.324 341.756 115.682 343.183 119.824 343.183Z" fill="#EA577C" stroke="#EA577C" stroke-width="0.755906" stroke-miterlimit="22.9256"/>
<path d="M185.573 339.684C189.715 339.684 193.073 338.257 193.073 336.497C193.073 334.737 189.715 333.31 185.573 333.31C181.431 333.31 178.073 334.737 178.073 336.497C178.073 338.257 181.431 339.684 185.573 339.684Z" fill="#EA577C" stroke="#EA577C" stroke-width="0.755906" stroke-miterlimit="22.9256"/>
</svg>
