<svg width="189" height="189" viewBox="0 0 189 189" fill="none" xmlns="http://www.w3.org/2000/svg">
<path d="M188.977 94.489C188.977 146.673 146.673 188.976 94.4882 188.976C42.3039 188.976 0 146.673 0 94.489C0 42.3043 42.3039 0 94.4882 0C146.673 0 188.977 42.3043 188.977 94.489Z" fill="#EA577C"/>
<path d="M29.3276 58.6273C28.521 58.6273 27.8665 57.9727 27.8665 57.1661V50.699C27.8665 49.892 28.521 49.2378 29.3276 49.2378C30.1341 49.2378 30.7884 49.892 30.7884 50.699V57.1661C30.7884 57.9727 30.1341 58.6273 29.3276 58.6273Z" fill="white"/>
<path d="M32.561 55.3934H26.0939C25.2873 55.3934 24.6331 54.7391 24.6331 53.9333C24.6331 53.1264 25.2873 52.4722 26.0939 52.4722H32.561C33.3676 52.4722 34.0218 53.1264 34.0218 53.9333C34.0218 54.7391 33.3676 55.3934 32.561 55.3934Z" fill="white"/>
<path d="M165.926 65.7999C165.119 65.7999 164.465 65.1445 164.465 64.3387V57.8708C164.465 57.065 165.119 56.4097 165.926 56.4097C166.733 56.4097 167.386 57.065 167.386 57.8708V64.3387C167.386 65.1445 166.733 65.7999 165.926 65.7999Z" fill="white"/>
<path d="M169.16 62.5664H162.692C161.885 62.5664 161.232 61.9118 161.232 61.1052C161.232 60.2983 161.885 59.644 162.692 59.644H169.16C169.965 59.644 170.62 60.2983 170.62 61.1052C170.62 61.9118 169.965 62.5664 169.16 62.5664Z" fill="white"/>
<path d="M31.1611 104.805C31.1611 106.101 30.1096 107.153 28.8128 107.153C27.5146 107.153 26.4635 106.101 26.4635 104.805C26.4635 103.507 27.5146 102.455 28.8128 102.455C30.1096 102.455 31.1611 103.507 31.1611 104.805Z" fill="white"/>
<path d="M162.559 106.35C162.559 107.647 161.507 108.698 160.21 108.698C158.913 108.698 157.861 107.647 157.861 106.35C157.861 105.052 158.913 104.001 160.21 104.001C161.507 104.001 162.559 105.052 162.559 106.35Z" fill="white"/>
<path d="M145.284 83.6223C145.284 88.8324 140.016 93.1459 138.491 97.8465C136.908 102.72 138.579 109.295 135.628 113.35C132.647 117.447 125.856 117.875 121.76 120.856C117.705 123.807 115.215 130.149 110.343 131.731C105.642 133.258 99.9214 129.641 94.7117 129.641C89.5008 129.641 83.7816 133.258 79.0799 131.73C74.2081 130.149 71.7178 123.807 67.662 120.856C63.5661 117.875 56.7762 117.446 53.7952 113.35C50.8438 109.294 52.5147 102.72 50.9326 97.8465C49.4061 93.1459 44.1389 88.8324 44.1389 83.6223C44.1389 78.4114 49.4061 74.0963 50.9326 69.3957C52.5147 64.5232 50.8438 57.9483 53.796 53.8925C56.7766 49.797 63.5661 49.368 67.662 46.3871C71.7185 43.4349 74.2081 37.0944 79.0799 35.5123C83.7816 33.9865 89.502 37.6028 94.7117 37.6028C99.9214 37.6028 105.643 33.9865 110.343 35.5123C115.215 37.0944 117.706 43.435 121.761 46.3883C125.857 49.3681 132.647 49.797 135.628 53.8925C138.579 57.9483 136.908 64.5239 138.491 69.3957C140.016 74.0963 145.284 78.4114 145.284 83.6223Z" fill="white"/>
<path d="M80.7677 54.6603C83.3881 58.6023 85.7325 62.7576 87.3134 67.2325C88.0985 69.453 88.6922 71.7415 89.0479 74.0701C89.4429 76.6541 89.5249 79.2779 89.4901 81.8884C89.4689 83.4913 89.3544 85.09 89.3177 86.6918C89.2815 88.2845 89.2683 89.8836 88.9908 91.457C88.9228 91.8429 89.5207 91.9646 89.5891 91.5768C89.8363 90.1765 89.8801 88.752 89.9119 87.3336C89.9436 85.897 90.0287 84.4638 90.0729 83.0279C90.1568 80.304 90.1217 77.5522 89.7724 74.8464C89.1613 70.1129 87.5818 65.5813 85.4252 61.3384C84.1927 58.9142 82.7807 56.586 81.2757 54.3221C81.058 53.9944 80.55 54.3326 80.7677 54.6603Z" fill="#EA577C"/>
<path d="M80.4344 54.634C81.1665 54.8679 81.8741 55.1669 82.5468 55.5392C83.2317 55.9183 83.858 56.3854 84.5269 56.7898C85.9167 57.6312 87.4149 58.2986 88.8828 58.9895C90.3769 59.6925 91.8607 60.3936 93.1764 61.4039C93.8113 61.8914 94.5884 62.111 95.2385 62.568C95.8515 62.9992 96.3285 63.5911 96.8304 64.1395C97.3388 64.6947 97.9216 65.1672 98.467 65.6842C99.0127 66.2016 99.5369 66.7417 100.04 67.301C101.049 68.4251 101.968 69.6311 102.807 70.8875C104.543 73.4893 105.898 76.3118 107.069 79.207C107.699 80.7641 108.27 82.3515 108.699 83.9771C108.914 84.7908 108.955 85.628 109.032 86.4625C109.069 86.859 109.115 87.2547 109.194 87.6455C109.267 88.003 109.367 88.3568 109.408 88.7204C109.45 89.0787 109.418 89.4181 109.266 89.7484C109.101 90.1048 109.646 90.3804 109.811 90.0232C110.135 89.3191 110.032 88.6187 109.868 87.8885C109.681 87.0627 109.633 86.2278 109.552 85.3872C109.388 83.7027 108.804 82.0688 108.22 80.4893C107.093 77.4404 105.737 74.4372 104.031 71.6664C102.416 69.0438 100.466 66.606 98.1502 64.5681C97.5724 64.0597 97.0787 63.4887 96.5519 62.9297C95.9925 62.3363 95.3764 61.8933 94.6402 61.5445C94.2724 61.3702 93.9066 61.1967 93.5823 60.948C93.2504 60.6933 92.9141 60.4488 92.563 60.222C91.8505 59.762 91.0969 59.3705 90.3346 59.0016C88.8352 58.2763 87.3072 57.6039 85.8339 56.8261C84.4196 56.0789 83.1693 55.0618 81.6855 54.4446C81.3151 54.2908 80.9367 54.1578 80.5546 54.0357C80.1812 53.9162 80.0641 54.5153 80.4344 54.634Z" fill="#EA577C"/>
<path d="M89.7582 87.1575C89.2691 86.9209 88.8427 86.5902 88.3797 86.3109C87.879 86.0093 87.3264 85.8521 86.7761 85.6672C85.8856 85.3687 84.9136 84.9752 83.9585 85.1597C82.4905 85.4435 81.5944 86.8555 81.0634 88.1398C80.422 89.6905 80.0497 91.4201 80.1805 93.1001C80.3547 95.3387 81.2814 97.3633 82.4973 99.2176C83.0752 100.099 83.6844 100.978 84.4279 101.729C85.1362 102.445 85.9733 102.854 86.9281 103.146C87.9043 103.445 88.9127 103.619 89.8946 103.897C90.8088 104.155 91.7522 104.173 92.6574 103.864C94.4285 103.26 95.6758 101.7 96.6119 100.154C97.1475 99.2709 97.6275 98.3494 98.0179 97.3924C98.4125 96.4253 98.7364 95.406 98.8026 94.3579C98.9299 92.3355 97.8667 90.3096 96.5163 88.8685C95.8254 88.1307 95 87.5336 94.0434 87.1946C92.9069 86.792 91.7122 86.7557 90.5258 86.6284C89.935 86.5649 89.3507 86.4681 88.7823 86.2912C88.4077 86.1748 88.2902 86.7739 88.6621 86.8895C90.7359 87.5343 93.0781 87.0638 94.9618 88.3273C96.5175 89.3712 97.7144 91.1959 98.0984 93.0248C98.4979 94.9293 97.6596 96.9 96.804 98.563C96.0076 100.111 95.0393 101.72 93.5728 102.72C92.8736 103.196 92.0712 103.492 91.2186 103.492C90.7711 103.492 90.347 103.39 89.9184 103.271C89.4796 103.15 89.0348 103.052 88.591 102.948C87.6507 102.729 86.6699 102.517 85.8157 102.049C84.9952 101.6 84.3765 100.813 83.8299 100.073C82.6239 98.4409 81.5626 96.6884 81.0614 94.7045C80.8018 93.6776 80.6888 92.5932 80.8037 91.538C80.8789 90.8475 81.0358 90.16 81.2308 89.4944C81.591 88.266 82.1586 86.8268 83.2725 86.0898C83.8167 85.7296 84.4339 85.6536 85.0647 85.7931C85.6354 85.9193 86.1903 86.1094 86.744 86.2954C87.2557 86.467 87.7452 86.6287 88.2055 86.9182C88.63 87.1855 89.0298 87.4833 89.4834 87.7025C89.8371 87.8737 90.1119 87.3287 89.7582 87.1575Z" fill="#EA577C"/>
<path d="M108.894 84.2173C108.123 83.9792 107.248 84.0276 106.464 84.1648C105.616 84.3126 104.72 84.5828 104.042 85.1346C103.286 85.7507 103.117 86.6634 102.946 87.578C102.855 88.0694 102.739 88.5411 102.593 89.0192C102.45 89.4928 102.316 89.972 102.279 90.4679C102.195 91.6112 102.702 92.6691 103.057 93.7292C103.261 94.3381 103.454 94.9515 103.622 95.5714C103.766 96.1001 103.866 96.6448 104.05 97.1618C104.379 98.0863 105.053 98.8248 105.815 99.4223C106.608 100.043 107.501 100.537 108.437 100.904C110.147 101.574 112.025 101.864 113.796 101.257C115.335 100.729 116.66 99.6559 117.645 98.3747C118.644 97.0741 119.353 95.5253 119.612 93.9012C119.737 93.1113 119.759 92.2968 119.637 91.5054C119.506 90.6595 119.201 89.9115 118.815 89.1537C117.888 87.3369 116.742 85.5942 114.781 84.7918C114.006 84.4743 113.201 84.2143 112.384 84.0317C111.527 83.8401 110.602 83.7086 109.729 83.8654C109.35 83.9338 108.99 84.0533 108.665 84.2627C108.334 84.4754 108.673 84.9834 109.003 84.7706C109.628 84.3685 110.45 84.3688 111.164 84.4444C112 84.5333 112.823 84.7446 113.619 85.0087C114.421 85.2741 115.209 85.5964 115.874 86.1294C116.609 86.7182 117.171 87.4779 117.649 88.2833C118.089 89.0237 118.537 89.8076 118.806 90.6293C119.031 91.3145 119.12 92.0345 119.107 92.7541C119.079 94.2667 118.576 95.7596 117.808 97.0526C117.039 98.3489 115.954 99.4847 114.631 100.22C113.221 101.004 111.664 101.147 110.103 100.789C108.353 100.388 106.527 99.5013 105.327 98.135C105.013 97.7786 104.772 97.3787 104.616 96.9305C104.445 96.4376 104.348 95.9214 104.212 95.4183C103.906 94.2867 103.516 93.182 103.131 92.0757C102.965 91.6002 102.853 91.1145 102.877 90.6081C102.898 90.1606 103.019 89.7203 103.146 89.2932C103.28 88.837 103.414 88.3906 103.503 87.9227C103.592 87.4514 103.665 86.9703 103.813 86.513C104.055 85.7707 104.666 85.3602 105.368 85.0889C106.135 84.7929 106.97 84.6534 107.791 84.6693C108.123 84.6757 108.456 84.7173 108.774 84.8156C109.149 84.9316 109.266 84.3322 108.894 84.2173Z" fill="#EA577C"/>
<path d="M106.687 89.0282C107.761 89.3426 109.052 90.0793 110.154 89.4617C110.776 89.1132 111.232 88.0523 112.057 88.3237C112.429 88.4461 112.546 87.8471 112.177 87.7254C111.213 87.4079 110.711 88.2492 110.07 88.778C109.149 89.5388 107.768 88.7111 106.807 88.4295C106.43 88.3191 106.313 88.9182 106.687 89.0282Z" fill="#EA577C"/>
<path d="M78.9914 54.0385C78.7238 53.7055 78.5246 53.3264 78.3247 52.9507C78.2279 52.7682 78.1267 52.589 78.0273 52.408C77.9142 52.202 77.836 51.9786 77.723 51.7723C77.6043 51.5557 77.4418 51.3629 77.3012 51.1604C77.2131 51.0341 77.1228 50.9052 77.0529 50.7673C77.031 50.7234 77.0192 50.6683 76.9939 50.6275C76.9758 50.598 76.9936 50.5579 76.969 50.6206C76.8851 50.6762 76.8015 50.7317 76.718 50.7877C77.0026 50.7926 77.2898 50.6974 77.5718 50.6622C77.6753 50.6494 77.6546 50.6482 77.7041 50.7235C77.7615 50.8111 77.8043 50.9079 77.8462 51.0031C77.9524 51.2435 78.0409 51.4922 78.152 51.7303C78.2472 51.9348 78.3768 52.1188 78.4883 52.3146C78.7828 52.8317 79.0504 53.3657 79.3856 53.8585C79.6751 54.2845 80.0391 54.7558 80.5644 54.8854C80.9458 54.9799 81.0649 54.3812 80.6843 54.2871C80.2402 54.1775 79.9015 53.5505 79.6785 53.1851C79.3811 52.6971 79.1362 52.1774 78.8293 51.6955C78.5707 51.2889 78.4766 50.7926 78.2121 50.3852C77.8368 49.8077 77.215 50.1883 76.6746 50.1788C76.5778 50.1769 76.4595 50.2559 76.4236 50.3455C76.193 50.9272 76.8552 51.5515 77.1447 51.9945C77.2456 52.1487 77.3091 52.3214 77.3878 52.4874C77.4894 52.7024 77.6119 52.9061 77.7245 53.1155C77.9565 53.5479 78.1746 53.9923 78.4834 54.3767C78.7276 54.6813 79.2374 54.3454 78.9914 54.0385Z" fill="#EA577C"/>
<path d="M77.9966 56.8026C78.364 57.2396 78.494 57.7759 78.6002 58.3246C78.7098 58.8935 78.8368 59.4559 79.0171 60.0069C79.2102 60.5973 79.4513 61.1702 79.7212 61.7292C79.9876 62.2811 80.2915 62.8166 80.5172 63.387C80.6219 63.6504 80.7258 63.9305 80.7587 64.2135C80.7912 64.491 80.7458 64.7699 80.7693 65.0477C80.7923 65.3228 80.8804 65.5746 80.99 65.8259C81.1106 66.1029 81.2005 66.372 81.2735 66.6657C81.5788 67.8967 81.7852 69.1534 81.8672 70.4195C81.9598 71.8508 81.8846 73.2848 81.6068 74.6927C81.5309 75.0778 82.1288 75.1983 82.2051 74.8125C82.7123 72.2431 82.554 69.5986 81.9882 67.0527C81.9216 66.7526 81.8555 66.4495 81.7705 66.1536C81.6888 65.8675 81.5407 65.6085 81.4458 65.3277C81.3596 65.0719 81.3702 64.8107 81.377 64.545C81.3853 64.2388 81.3426 63.9475 81.2561 63.6534C81.0799 63.054 80.7859 62.4973 80.5039 61.9424C80.2193 61.3819 79.9555 60.812 79.7378 60.222C79.4956 59.564 79.3285 58.8908 79.1939 58.2037C79.0722 57.5812 78.9222 56.961 78.5046 56.4644C78.254 56.1669 77.7437 56.5022 77.9966 56.8026Z" fill="#EA577C"/>
<path d="M86.8804 89.8512C87.2376 90.3047 87.2988 90.909 87.7607 91.2945C88.2146 91.6733 88.7774 91.6978 89.3243 91.8422C89.7793 91.9624 90.4906 92.2632 90.9321 91.9594C91.0288 91.8928 91.0908 91.7976 91.1604 91.7065C91.2201 91.6275 91.2133 91.6415 91.293 91.6355C91.3969 91.6283 91.4623 91.6574 91.5648 91.62C91.6974 91.5712 91.7779 91.4593 91.843 91.3399C91.9216 91.1951 91.8516 91.0024 91.7076 90.9302C91.6309 90.8913 91.5538 90.8527 91.4767 90.8138C91.1252 90.6373 90.8508 91.1823 91.202 91.3588C91.2791 91.3977 91.3558 91.4363 91.4329 91.4752C91.3879 91.3388 91.3429 91.202 91.2979 91.0652C91.3399 90.9877 91.4374 91.0583 91.3943 91.0341C91.3618 91.0156 91.2904 91.0205 91.2537 91.0202C91.1547 91.0186 91.0598 91.0383 90.9691 91.0784C90.8769 91.1192 90.8005 91.1819 90.7355 91.2587C90.6917 91.3108 90.6516 91.4185 90.5938 91.4514C90.4566 91.5293 90.1501 91.431 90.0106 91.3981C89.7755 91.3422 89.5457 91.2647 89.3099 91.2103C88.8669 91.1082 88.3801 91.0905 88.0517 90.7318C87.7384 90.3894 87.6771 89.8799 87.3884 89.5129C87.1465 89.206 86.637 89.542 86.8804 89.8512Z" fill="#EA577C"/>
<path d="M79.9941 54.2182C79.1675 53.8199 78.4486 54.8097 78.0537 55.3955C77.7502 55.8453 77.5223 56.3302 77.2724 56.8106C77.1198 57.1046 76.93 57.379 76.8057 57.6871C76.6983 57.9539 76.6277 58.2317 76.5521 58.5083C76.4674 58.8183 76.3612 59.0991 76.2108 59.3833C76.0653 59.6592 75.9338 59.9317 75.857 60.2356C75.6854 60.9125 75.5989 61.6189 75.4666 62.3049C75.3389 62.9686 75.1922 63.6345 74.9171 64.2551C74.6381 64.8836 74.2379 65.4479 73.9673 66.0833C73.702 66.7054 73.5069 67.363 73.4389 68.0377C73.3674 68.7414 73.3928 69.4448 73.2941 70.1482C73.1962 70.8493 73.0424 71.539 72.9025 72.2322C72.7706 72.8842 72.7385 73.546 72.6887 74.2077C72.5828 75.6134 72.1742 76.8991 71.6254 78.1906C71.4951 78.4967 71.3575 78.7931 71.2709 79.1155C71.2373 79.2406 71.2131 79.385 71.1394 79.495C71.0604 79.6136 70.9304 79.6979 70.8166 79.7795C70.3669 80.1023 69.9836 80.4761 69.6627 80.9304C69.4178 81.277 69.1812 81.709 69.2837 82.1481C69.357 82.4622 69.6015 82.6833 69.8925 82.8028C70.5147 83.0575 71.2845 83.0126 71.9339 82.895C73.0764 82.6886 74.2322 82.2457 75.2345 81.6602C75.6106 81.4402 75.9697 81.1647 76.4115 81.0971C76.6674 81.0578 76.9266 81.0839 77.1829 81.0529C77.4784 81.0173 77.7555 80.9274 78.0219 80.7959C78.5068 80.5562 78.9895 80.2395 79.412 79.9008C79.8433 79.5558 80.188 79.1419 80.3641 78.612C80.5603 78.0217 80.7054 77.4389 80.9821 76.8761C81.2595 76.3122 81.6061 75.7891 81.998 75.2989C82.3601 74.8457 82.6832 74.3948 82.9191 73.8608C83.1553 73.3264 83.3224 72.7609 83.4527 72.1921C83.715 71.0473 83.8235 69.8761 84.0431 68.7233C84.2922 67.4156 84.7351 66.1173 84.6455 64.7692C84.601 64.1013 84.4638 63.4686 84.2559 62.8348C84.0424 62.1832 83.9173 61.507 83.7075 60.8547C83.3367 59.7015 82.5729 58.7461 81.9799 57.7063C81.6915 57.1999 81.5036 56.6481 81.2164 56.1416C80.9537 55.6786 80.5655 55.2859 80.3652 54.7938C80.2704 54.5606 80.1532 54.3467 79.9298 54.2152C79.7216 54.0924 79.4797 54.1196 79.3561 53.8898C79.1701 53.5436 78.6637 53.8841 78.8481 54.228C78.9698 54.4544 79.1437 54.5841 79.3864 54.6597C79.4725 54.6865 79.5734 54.699 79.6464 54.7572C79.7462 54.8365 79.7794 54.973 79.824 55.0871C80.0107 55.5652 80.3917 55.9447 80.6532 56.3846C80.9412 56.8692 81.1204 57.4074 81.3921 57.9017C81.6695 58.4067 81.992 58.8844 82.2966 59.3735C82.5993 59.8591 82.8869 60.3569 83.0786 60.8985C83.2883 61.4912 83.4062 62.1125 83.5812 62.7153C83.7592 63.3295 83.9471 63.901 84.0125 64.5416C84.079 65.1917 84.0257 65.8263 83.907 66.4673C83.7891 67.1056 83.6221 67.7338 83.4913 68.3695C83.3813 68.9032 83.3019 69.4425 83.2214 69.9811C83.057 71.0832 82.9047 72.2144 82.5067 73.2614C82.3174 73.7602 82.0736 74.2403 81.7365 74.6556C81.3657 75.1118 81.0123 75.5786 80.7145 76.0865C80.4151 76.5972 80.1797 77.1384 79.9956 77.7004C79.8161 78.2466 79.7291 78.7534 79.3115 79.179C78.9449 79.552 78.4672 79.8328 78.0219 80.1019C77.8114 80.2297 77.5918 80.3412 77.3522 80.4039C77.0733 80.4765 76.7898 80.4462 76.506 80.4719C76.071 80.5113 75.6937 80.6711 75.323 80.8934C74.8762 81.1617 74.4329 81.4138 73.9529 81.6194C73.101 81.9838 72.1928 82.305 71.2604 82.359C70.9384 82.3776 70.6088 82.3749 70.2939 82.2956C70.0755 82.24 69.8782 82.1451 69.8684 81.9512C69.8472 81.5423 70.2709 81.1145 70.5211 80.8393C70.6798 80.6651 70.8393 80.5101 71.0317 80.3741C71.2396 80.227 71.4603 80.0811 71.6137 79.8744C71.7819 79.648 71.8224 79.3744 71.9025 79.1113C71.9974 78.8006 72.1569 78.5013 72.2816 78.2012C72.5356 77.5912 72.7703 76.9713 72.9498 76.3349C73.1312 75.6916 73.2321 75.0396 73.2835 74.3737C73.3334 73.7289 73.3591 73.0811 73.482 72.445C73.6101 71.7821 73.7631 71.1248 73.8648 70.4569C73.9665 69.7902 73.9915 69.13 74.0164 68.4576C74.0402 67.8136 74.1899 67.1706 74.4246 66.572C74.6608 65.9699 74.9979 65.4343 75.2992 64.8655C75.9043 63.7233 76.0849 62.3877 76.3094 61.1306C76.3661 60.8131 76.399 60.4816 76.5067 60.1759C76.6069 59.8909 76.7808 59.638 76.9043 59.3637C77.1413 58.8387 77.1931 58.2498 77.4535 57.7347C77.5933 57.4577 77.763 57.1965 77.9025 56.9183C78.0559 56.6118 78.2022 56.3019 78.381 56.0086C78.562 55.7119 78.7604 55.4231 78.9936 55.165C79.146 54.9964 79.4574 54.637 79.7193 54.7632C80.0735 54.9337 80.3483 54.3887 79.9941 54.2182Z" fill="#EA577C"/>
<path d="M78.9694 54.8735C78.9815 54.8142 78.9932 54.7548 79.0053 54.6959C78.8058 54.6558 78.6062 54.6157 78.4067 54.5757C78.0196 56.5305 77.8949 58.5249 77.5026 60.4797C77.1004 62.4843 76.6983 64.489 76.2958 66.494C76.1079 67.4306 75.9511 68.3679 75.7946 69.3105C75.6419 70.2278 75.4102 71.082 75.0312 71.932C74.6558 72.7737 74.2356 73.5984 73.7525 74.3834C73.2604 75.1836 72.703 75.9406 72.215 76.7441C71.6662 77.6467 71.2305 78.6078 70.6911 79.5141C70.1934 80.3506 69.6903 81.1662 69.5115 82.1386C69.4409 82.5245 70.0391 82.6459 70.1102 82.2588C70.2682 81.399 70.7059 80.671 71.1503 79.9321C71.6269 79.1403 72.0106 78.299 72.4747 77.4993C72.952 76.6761 73.4865 75.8941 74.0133 75.1027C74.5224 74.3381 74.9594 73.5255 75.3517 72.6955C75.7406 71.8734 76.0736 71.0484 76.2591 70.1553C76.4489 69.2433 76.5528 68.3162 76.7361 67.4026C77.1383 65.398 77.5408 63.3933 77.9429 61.3883C78.1666 60.2718 78.3711 59.1591 78.5159 58.0294C78.6584 56.9148 78.7865 55.7987 79.0053 54.6959C79.0813 54.3107 78.4841 54.1902 78.4067 54.5757C78.395 54.635 78.3828 54.694 78.3711 54.7533C78.294 55.1385 78.8919 55.259 78.9694 54.8735Z" fill="#EA577C"/>
<path d="M76.9591 63.2458C77.0181 63.7186 77.1772 64.1707 77.3378 64.617C77.5151 65.1099 77.695 65.5956 77.9127 66.0725C78.1395 66.5692 78.3473 67.0635 78.4974 67.5893C78.6482 68.1165 78.7688 68.6525 78.9403 69.174C79.1074 69.6816 79.3251 70.1707 79.4827 70.6817C79.6388 71.1878 79.7405 71.7044 79.8021 72.2301C79.9306 73.3315 79.8875 74.4415 79.7458 75.5391C79.5829 76.7996 79.3077 78.0423 79.0572 79.2873C78.9797 79.6721 79.578 79.793 79.6555 79.4071C80.0996 77.1995 80.62 74.9676 80.459 72.6995C80.383 71.6311 80.1377 70.6148 79.7549 69.617C79.3573 68.5803 79.1796 67.471 78.7469 66.449C78.5118 65.8941 78.2487 65.3571 78.048 64.7879C77.8658 64.2712 77.6364 63.75 77.5676 63.2024C77.5193 62.8146 76.91 62.8546 76.9591 63.2458Z" fill="#EA577C"/>
<path d="M75.3366 71.3324C75.5029 72.1809 75.6821 73.0283 75.7792 73.8882C75.8756 74.7423 75.8809 75.6029 75.8752 76.4613C75.8699 77.2776 75.7785 78.0536 75.5974 78.8503C75.4126 79.6629 75.1787 80.4634 75.012 81.2794C74.9334 81.6646 75.5317 81.7851 75.6103 81.3996C75.777 80.5832 76.0109 79.7827 76.1957 78.9705C76.3817 78.1537 76.4773 77.3498 76.4833 76.5123C76.4898 75.6226 76.4887 74.7306 76.3881 73.8451C76.291 72.9852 76.1118 72.1375 75.9451 71.2894C75.8707 70.9091 75.2607 70.9469 75.3366 71.3324Z" fill="#EA577C"/>
<path d="M94.5506 22.118C94.5506 23.4148 93.4981 24.4663 92.2009 24.4663C90.9038 24.4663 89.8523 23.4148 89.8523 22.118C89.8523 20.8205 90.9038 19.769 92.2009 19.769C93.4981 19.769 94.5506 20.8205 94.5506 22.118Z" fill="white"/>
<path fill-rule="evenodd" clip-rule="evenodd" d="M129.425 155.455C129.425 151.412 129.776 149.729 131.306 146.975C134.682 140.896 141.723 143.676 141.723 155.731C141.723 160.766 139.006 165.931 136.189 165.931C134.092 165.931 132.682 165.7 131.072 162.702C130.198 161.076 129.425 158.557 129.425 155.455ZM134.81 140.017H136.494C137.605 140.197 138.674 140.743 139.566 141.678C143.461 145.763 145.109 153.805 143.197 161.407C139.661 175.468 127.119 171.446 127.119 154.903C127.119 150.361 128.146 147.111 129.463 144.772C130.282 143.316 130.563 142.589 131.676 141.572C132.608 140.72 133.697 140.194 134.81 140.017Z" fill="white"/>
<path fill-rule="evenodd" clip-rule="evenodd" d="M69.1647 156.282H66.7053V144.152C68.233 144.152 69.4595 143.956 70.6194 145.403C72.2053 147.381 72.4044 151.932 71.0552 154.434C70.6617 155.164 69.876 156.282 69.1647 156.282ZM64.5529 169.79H66.7053V160.417H68.7035C68.8483 161.532 70.5638 166.012 71.0023 167.322C71.2426 168.041 71.6663 169.039 71.7782 169.79H74.3914C74.2251 168.509 71.5155 161.827 70.8556 159.59C71.5877 159.284 72.6403 157.261 73.1207 156.209C74.3143 153.596 74.4836 149.639 73.7602 146.386C72.1236 139.026 67.7235 140.292 64.5529 140.292V169.79Z" fill="white"/>
<path fill-rule="evenodd" clip-rule="evenodd" d="M117.28 165.655H116.819V144.428C120.326 144.428 122.661 149.039 122.661 154.076V156.006C122.661 160.994 120.062 165.655 117.28 165.655ZM114.667 169.79C116.556 169.79 118.114 169.866 119.875 168.654C126.6 164.025 126.569 146.172 120.115 141.548C118.043 140.063 116.874 140.292 114.667 140.292V169.79Z" fill="white"/>
<path fill-rule="evenodd" clip-rule="evenodd" d="M76.3896 141.119V158.763C76.3896 162.403 76.9252 164.811 77.9623 166.696C78.522 167.714 78.8849 168.308 79.6113 168.975C81.7547 170.944 84.1294 170.02 85.8052 167.378C86.5475 166.208 87.6118 163.313 87.6118 160.968V140.292H85.4597V159.59C85.4597 161.292 85.098 162.968 84.6536 163.934C82.8897 167.764 78.6955 165.887 78.6955 160.417V140.292C77.1074 140.292 76.3896 139.894 76.3896 141.119Z" fill="white"/>
<path fill-rule="evenodd" clip-rule="evenodd" d="M106.059 149.114C106.465 149.648 106.526 150.512 106.847 152.112C106.996 152.856 107.405 154.661 107.442 155.455H104.829L106.059 149.114ZM99.6021 169.79H101.908C102.5 167.579 103.466 161.537 104.06 159.314H108.365C108.429 160.701 110.02 167.154 110.363 169.79H112.669L106.827 140.292H105.598L99.6021 169.79Z" fill="white"/>
<path fill-rule="evenodd" clip-rule="evenodd" d="M53.946 169.79C55.4469 169.79 56.0981 170.164 56.0981 168.964V157.109H61.3248C62.0078 157.109 61.7859 155.822 61.7859 152.973H56.0981V144.152H61.7859V140.292H53.946V169.79Z" fill="white"/>
<path fill-rule="evenodd" clip-rule="evenodd" d="M89.6101 144.152H93.2997V168.964C93.2997 170.188 94.017 169.79 95.6056 169.79V144.152H99.4486V140.292H89.6101V144.152Z" fill="white"/>
</svg>
