<svg width="492" height="164" viewBox="0 0 492 164" fill="none" xmlns="http://www.w3.org/2000/svg">
<path fill-rule="evenodd" clip-rule="evenodd" d="M411.84 84.2374C411.84 62.1766 413.756 52.9946 422.106 37.9657C440.53 4.80037 478.942 19.9661 478.942 85.7423C478.942 113.217 464.119 141.399 448.746 141.399C437.31 141.399 429.614 140.139 420.826 123.781C416.059 114.908 411.84 101.167 411.84 84.2374ZM441.226 0H450.413C456.476 0.986079 462.309 3.96358 467.176 9.06821C488.427 31.3565 497.418 75.2349 486.987 116.717C467.694 193.439 399.259 171.494 399.259 81.2296C399.259 56.445 404.863 38.7118 412.048 25.9446C416.518 18.0011 418.05 14.0375 424.123 8.4888C429.208 3.84112 435.15 0.968315 441.226 0Z" fill="#368735"/>
<path fill-rule="evenodd" clip-rule="evenodd" d="M83.0389 88.75H69.6182V22.5637C77.9558 22.5637 84.6478 21.496 90.9763 29.3895C99.6287 40.1827 100.717 65.0173 93.354 78.6674C91.2061 82.6491 86.9205 88.75 83.0389 88.75ZM57.8755 162.459H69.6182V111.314H80.5225C81.3131 117.395 90.672 141.843 93.0648 148.992C94.3763 152.911 96.6875 158.359 97.2979 162.459H111.558C110.649 155.466 95.8662 119.005 92.2651 106.801C96.2585 105.133 102.003 94.0909 104.625 88.352C111.136 74.0979 112.06 52.504 108.113 34.7569C99.1831 -5.40478 75.1741 1.50455 57.8755 1.50455V162.459Z" fill="#F8A04C"/>
<path fill-rule="evenodd" clip-rule="evenodd" d="M345.577 139.895H343.06V24.0681C362.191 24.0681 374.933 49.233 374.933 76.7166V87.2452C374.933 114.462 360.753 139.895 345.577 139.895ZM331.318 162.459C341.626 162.459 350.126 162.871 359.734 156.258C396.426 131.001 396.258 33.5877 361.046 8.35893C349.736 0.255627 343.36 1.50437 331.318 1.50437V162.459Z" fill="#7A75B5"/>
<path fill-rule="evenodd" clip-rule="evenodd" d="M122.461 6.01741V102.288C122.461 122.148 125.384 135.29 131.04 145.57C134.097 151.126 136.076 154.37 140.04 158.01C151.735 168.756 164.691 163.714 173.836 149.296C177.885 142.91 183.692 127.116 183.692 114.322V1.50464H171.95V106.801C171.95 116.088 169.976 125.234 167.551 130.502C157.928 151.403 135.043 141.16 135.043 111.314V1.50464C126.377 1.50464 122.461 -0.666309 122.461 6.01741Z" fill="#8E5578"/>
<path fill-rule="evenodd" clip-rule="evenodd" d="M284.346 49.6401C286.564 52.5537 286.897 57.2672 288.646 65.996C289.458 70.0575 291.693 79.9058 291.894 84.2371H277.636L284.346 49.6401ZM249.117 162.459H261.699C264.927 150.392 270.198 117.424 273.442 105.296H296.927C297.279 112.865 305.962 148.071 307.832 162.459H320.413L288.54 1.50439H281.829L249.117 162.459Z" fill="#EA577C"/>
<path fill-rule="evenodd" clip-rule="evenodd" d="M0 162.459C8.1891 162.459 11.7426 164.499 11.7426 157.946V93.2626H40.2614C43.9884 93.2626 42.7774 86.2414 42.7774 70.6989H11.7426V22.5636H42.7774V1.50439H0V162.459Z" fill="#E73254"/>
<path fill-rule="evenodd" clip-rule="evenodd" d="M194.597 22.5636H214.727V157.946C214.727 164.628 218.643 162.459 227.309 162.459V22.5636H248.279V1.50439H194.597V22.5636Z" fill="#79A942"/>
</svg>
