<svg width="199" height="221" viewBox="0 0 199 221" fill="none" xmlns="http://www.w3.org/2000/svg">
<path fill-rule="evenodd" clip-rule="evenodd" d="M54.939 144.769C60.3978 142.267 68.952 145.868 68.2819 151.921C63.0434 154.813 53.8274 150.612 54.939 144.769ZM137.981 144.955C137.331 137.983 150.387 136.416 151.962 139.937C153.859 144.175 143.132 148.636 137.981 144.955ZM60.2734 140.066L59.4676 138.604C67.7762 131.859 74.1813 137.265 73.535 143.801C73.2111 147.075 73.1771 145.629 71.7027 145.944L71.3739 143.85C70.9426 133.302 63.9298 138.612 60.2734 140.066ZM30.5161 134.986C30.566 131.064 32.7717 127.859 34.0703 125.123C40.039 124.837 47.999 133.905 48.6461 135.357C49.6019 137.501 49.289 136.752 48.1113 137.506C47.3388 139.971 42.2209 144.423 37.5475 143.692C33.5605 143.068 29.4578 138.906 30.5161 134.986ZM140.603 131.59C139.513 122.311 153.462 121.494 153.978 130.015C154.511 138.827 141.546 139.613 140.603 131.59ZM9.82202 118.827C8.42813 111.244 20.3098 117.192 21.5042 123.203C23.0821 131.143 10.9049 124.717 9.82202 118.827ZM173.71 113.161C178.399 113.54 181.427 125.951 168.15 122.909C166.875 133.368 157.077 129.522 156.655 123.481C156.645 123.34 156.647 123.185 156.65 123.047L156.908 121.737C159.776 121.846 157.909 125.827 162.39 127.5C166.963 126.033 165.2 123.256 166.427 119.609C169.224 119.414 168.582 123.299 175.324 120.66C176.35 116.008 172.945 115.617 173.71 113.161ZM14.8964 112.044C14.735 111.422 14.0109 112.913 14.9561 111.149C15.8575 109.465 21.0109 107.327 24.5648 108.82C28.5753 110.505 30.0629 118.412 27.0559 118.632C24.8944 117.973 28.3175 112.672 23.7654 110.675C20.2769 109.145 17.547 112.176 16.0344 112.285C14.7615 112.378 15.7064 112.462 14.8964 112.044ZM125.744 97.4814C126.752 102.665 118.584 106.919 116.56 105.025C113.875 102.514 120.806 96.278 125.744 97.4814ZM35.7492 95.4227C33.9475 98.0117 22.3977 102.431 26.7286 95.442C29.0723 91.6598 40.0889 89.1865 35.7492 95.4227ZM195.36 119.808C193.127 120.614 188.96 124.046 186.511 121.29C183.178 117.806 190.596 113.592 191.572 112.91L192.777 111.914L190.3 107.128C191.169 116.31 181.427 118.139 177.924 112.335C174.345 106.402 180.937 98.6724 188.978 104.278C187.414 98.7158 176.687 89.9878 171.445 87.4366C158.181 80.9819 153.281 86.4309 143.216 89.0471L143.687 91.099C145.789 92.2899 145.027 92.5945 146.579 94.2197C147.601 95.2893 146.679 94.499 148.2 95.2413L150.304 96.6757L137.502 94.3535L135.269 92.8534C125.996 96.4648 120.451 92.517 110.058 99.9978C102.865 105.175 99.9006 110.293 99.6395 122.018C97.6375 118.862 99.1145 112.846 88.3761 106.16C83.3165 103.01 69.429 99.44 68.2645 98.5923L62.6776 102.717C64.1096 103.049 65.0999 103.244 66.5266 103.47C66.9129 103.531 68.0517 103.703 68.3178 103.784L70.079 104.613C64.6562 104.841 57.35 103.464 53.5103 100.848L57.5994 101.742C59.4344 100.288 58.3546 100.08 60.7716 99.0586L61.6254 95.4288C52.6717 91.8004 46.2174 80.6146 31.0985 86.4471C22.4029 89.8015 14.6171 99.9499 10.1425 108.034C-3.13042 132.011 -2.56614 151.058 11.993 172.971C18.8993 183.366 22.9513 187.675 38.1061 189.401C53.1913 191.119 63.7491 186.563 71.9911 181.049C90.0168 168.992 99.6395 153.13 99.6395 123.081H100.171C100.171 138.958 109.11 154.262 116.35 163.271C124.862 173.862 136.227 180.683 152.084 183.906C170.71 187.691 181.721 176.559 188.775 165.952C197.935 152.18 199.713 139.875 195.36 119.808Z" fill="#E41B41"/>
<path fill-rule="evenodd" clip-rule="evenodd" d="M112.488 7.68465C110.062 12.7953 104.527 10.7755 112.215 14.5978L119.335 11.449C122.313 24.273 132.476 37.8842 145.936 40.624C155.714 42.6143 190.929 40.0752 191.106 32.1465C176.763 28.3167 162.5 21.3537 152.166 13.1222C147.722 9.58194 140.984 3.13105 134.933 1.63852C123.89 -1.08501 118.203 6.02809 112.488 7.68465Z" fill="#368735"/>
<path fill-rule="evenodd" clip-rule="evenodd" d="M135.269 92.8532L137.502 94.3533L144.548 94.5876C144.48 94.4977 144.368 94.0774 144.333 94.1541C144.281 94.2698 144.069 93.498 143.977 93.1298C143.617 91.7004 143.734 92.6589 143.687 91.0988L143.216 89.0468L109.743 26.8834L103.894 26.5845C106.184 38.5735 128.398 86.0969 135.269 92.8532Z" fill="#A56532"/>
<path fill-rule="evenodd" clip-rule="evenodd" d="M97.5123 24.8038L61.6254 95.4284L60.7716 99.0583L60.6858 100.414L60.5444 101.989L62.6776 102.717L68.2645 98.5919C68.8307 96.5249 75.5438 86.0019 77.3833 81.6804C79.9304 75.6963 82.8293 69.6959 85.5744 63.2824C90.9488 50.7253 96.2568 38.87 101.434 26.2967L101.956 21.6619L101.443 21.3667L97.5123 24.8038Z" fill="#A56532"/>
<path fill-rule="evenodd" clip-rule="evenodd" d="M97.5124 24.804L101.443 21.3669L101.956 21.662L101.434 26.2969L103.894 26.5845L109.743 26.8835C116.127 28.0551 112.894 19.5697 112.215 14.5977C104.528 10.7755 110.062 12.7953 112.488 7.68462C112.085 1.22389 107.843 -0.1122 101.767 1.30323C100.646 6.11571 97.7187 9.66809 97.902 13.2148C98.373 22.342 93.4066 17.9063 97.5124 24.804Z" fill="#949E1E"/>
<path fill-rule="evenodd" clip-rule="evenodd" d="M30.5161 134.986C29.4578 138.906 33.5605 143.068 37.5475 143.692C42.2209 144.423 47.3388 139.971 48.1113 137.506C43.275 131.895 38.1141 131.316 30.5161 134.986Z" fill="#FF99CC"/>
<path fill-rule="evenodd" clip-rule="evenodd" d="M181.938 109.691C179.728 110.597 177.734 109.443 178.736 107.523C179.585 105.897 182.955 105.61 181.938 109.691ZM190.3 107.128C190.325 105.234 190.284 105.55 188.978 104.278C180.937 98.6723 174.345 106.401 177.924 112.335C181.427 118.139 191.169 116.31 190.3 107.128Z" fill="#434242"/>
<path fill-rule="evenodd" clip-rule="evenodd" d="M142.87 130.407C142.253 126.895 145.102 126.502 146.074 128.225C147.221 130.26 145.351 131.694 142.87 130.407ZM140.603 131.589C141.546 139.613 154.511 138.827 153.978 130.015C153.462 121.494 139.513 122.311 140.603 131.589Z" fill="#434242"/>
<path fill-rule="evenodd" clip-rule="evenodd" d="M30.5161 134.986C38.1141 131.316 43.275 131.895 48.1113 137.506C49.289 136.752 49.602 137.5 48.6461 135.357C47.9991 133.905 40.039 124.837 34.0704 125.123C32.7717 127.859 30.566 131.063 30.5161 134.986Z" fill="#872232"/>
<path fill-rule="evenodd" clip-rule="evenodd" d="M192.777 111.913L191.572 112.91C190.596 113.592 183.178 117.805 186.511 121.289C188.96 124.045 193.127 120.614 195.36 119.808C197.504 116.927 198.55 117.646 198.55 112.445C197.359 112.168 197.023 111.839 195.816 111.741C195.299 111.699 194.212 111.913 192.777 111.913Z" fill="#EA577C"/>
<path fill-rule="evenodd" clip-rule="evenodd" d="M9.822 118.827C10.9048 124.717 23.0821 131.143 21.5041 123.203C20.3098 117.192 8.42811 111.244 9.822 118.827Z" fill="#EA577C"/>
<path fill-rule="evenodd" clip-rule="evenodd" d="M137.981 144.955C143.132 148.636 153.859 144.175 151.962 139.936C150.387 136.416 137.331 137.982 137.981 144.955Z" fill="#EA577C"/>
<path fill-rule="evenodd" clip-rule="evenodd" d="M54.939 144.769C53.8275 150.612 63.0435 154.813 68.2819 151.921C68.952 145.868 60.3978 142.267 54.939 144.769Z" fill="#EA577C"/>
<path fill-rule="evenodd" clip-rule="evenodd" d="M168.15 122.909C181.426 125.951 178.399 113.54 173.71 113.161C172.945 115.617 176.349 116.007 175.324 120.66C168.582 123.298 169.224 119.414 166.427 119.609C165.2 123.256 166.963 126.033 162.39 127.5C157.909 125.827 159.776 121.846 156.908 121.736L156.65 123.047C156.647 123.184 156.645 123.34 156.655 123.481C157.077 129.522 166.875 133.367 168.15 122.909Z" fill="#8B2233"/>
<path fill-rule="evenodd" clip-rule="evenodd" d="M35.7492 95.4224C40.0888 89.1862 29.0722 91.6595 26.7286 95.4417C22.3976 102.43 33.9474 98.0114 35.7492 95.4224Z" fill="#FEFDFD"/>
<path fill-rule="evenodd" clip-rule="evenodd" d="M125.744 97.4811C120.806 96.2777 113.875 102.514 116.56 105.025C118.584 106.919 126.752 102.665 125.744 97.4811Z" fill="#FEFDFD"/>
<path fill-rule="evenodd" clip-rule="evenodd" d="M60.2735 140.066C63.9298 138.612 70.9427 133.302 71.3739 143.85L71.7027 145.944C73.1771 145.629 73.2112 147.075 73.5351 143.801C74.1814 137.265 67.7762 131.859 59.4677 138.604L60.2735 140.066Z" fill="#454342"/>
<path fill-rule="evenodd" clip-rule="evenodd" d="M14.8964 112.044C15.7064 112.461 14.7615 112.377 16.0344 112.285C17.547 112.176 20.277 109.145 23.7655 110.675C28.3175 112.672 24.8944 117.972 27.0559 118.632C30.0629 118.412 28.5753 110.505 24.5649 108.82C21.011 107.327 15.8576 109.465 14.9561 111.148C14.0109 112.913 14.735 111.422 14.8964 112.044Z" fill="#454342"/>
<path fill-rule="evenodd" clip-rule="evenodd" d="M62.6775 102.717L60.5443 101.989C59.6943 100.926 59.7847 102.863 59.8531 100.764L60.6857 100.414L60.7715 99.0586C58.3545 100.08 59.4343 100.288 57.5993 101.742L53.5103 100.847C57.3499 103.464 64.6561 104.841 70.0789 104.613L68.3177 103.784C68.0516 103.703 66.9128 103.531 66.5266 103.47C65.0998 103.244 64.1096 103.049 62.6775 102.717Z" fill="#874A49"/>
<path fill-rule="evenodd" clip-rule="evenodd" d="M137.502 94.3532L150.304 96.6753L148.2 95.241C146.679 94.4987 147.601 95.289 146.579 94.2194C145.027 92.5942 145.789 92.2896 143.687 91.0986C143.734 92.6588 143.617 91.7003 143.977 93.1297C144.069 93.4978 144.281 94.2697 144.333 94.154C144.368 94.0773 144.48 94.4975 144.548 94.5875L137.502 94.3532Z" fill="#874A49"/>
<path fill-rule="evenodd" clip-rule="evenodd" d="M142.87 130.407C145.351 131.694 147.221 130.26 146.074 128.226C145.102 126.502 142.253 126.895 142.87 130.407Z" fill="#FDF9F9"/>
<path fill-rule="evenodd" clip-rule="evenodd" d="M181.938 109.691C182.955 105.61 179.585 105.897 178.736 107.523C177.734 109.443 179.728 110.597 181.938 109.691Z" fill="#FDF9F9"/>
<path fill-rule="evenodd" clip-rule="evenodd" d="M60.5444 101.989L60.6857 100.414L59.8531 100.764C59.7847 102.862 59.6944 100.925 60.5444 101.989Z" fill="#DA343E"/>
<path d="M62.4549 220.602C60.2507 220.602 58.9018 218.949 58.4086 215.642C58.2056 214.366 58.1039 212.713 58.1039 210.682C58.1039 209.696 58.155 208.282 58.2563 206.44C58.3579 204.598 58.5609 202.437 58.8655 199.957C59.1702 197.477 59.5545 195.468 60.0187 193.931C59.3225 194.193 58.6989 194.482 58.1478 194.801C57.3065 195.149 56.7263 195.324 56.4073 195.324C56.0592 195.324 55.8052 195.208 55.6457 194.976C55.4862 194.744 55.4065 194.482 55.4065 194.193C55.4065 192.974 56.6394 191.828 59.1048 190.755C61.3385 189.798 64.0794 189.073 67.3279 188.58C69.5034 188.261 71.4759 188.101 73.2455 188.101C74.6375 188.101 75.7543 188.29 76.5957 188.667C77.6108 189.131 78.1184 189.653 78.1184 190.233C78.1184 190.32 78.0893 190.465 78.0311 190.668C77.7995 191.277 76.5518 191.582 74.2894 191.582C72.143 191.582 68.9671 191.959 64.7608 192.713C64.8769 193.351 64.9423 194.25 64.957 195.411C64.9714 196.571 64.9714 197.695 64.957 198.783C64.9423 199.87 64.9207 200.646 64.8916 201.11V201.676C64.8916 203.01 65.225 203.677 65.8924 203.677C66.1823 203.677 66.5085 203.619 66.8713 203.503C67.2338 203.387 67.589 203.271 67.9371 203.155C68.2852 203.039 68.597 202.938 68.8726 202.851C69.1481 202.764 69.373 202.72 69.5468 202.72C70.0401 202.72 70.4316 202.88 70.7219 203.199C71.0118 203.518 71.1713 203.881 71.2004 204.287C71.2004 204.722 71.0409 205.128 70.7219 205.505C70.4025 205.882 69.8662 206.128 69.1118 206.244C68.9089 206.244 68.3722 206.317 67.5021 206.462C66.1389 206.723 65.3266 207.173 65.0655 207.811C64.9494 208.246 64.8916 208.811 64.8916 209.508C64.8916 211.654 65.1237 214.032 65.5878 216.643C65.6456 216.991 65.6747 217.31 65.6747 217.6C65.6747 218.529 65.3773 219.261 64.7827 219.798C64.1882 220.334 63.4123 220.602 62.4549 220.602Z" fill="#368735"/>
<path d="M78.5969 218.775H78.4231C77.4948 218.775 76.61 218.354 75.7687 217.513C74.7535 216.469 73.9995 215.251 73.5063 213.859C72.8974 212.234 72.5928 210.581 72.5928 208.898C72.5928 205.94 73.2599 203.329 74.594 201.067C75.0873 200.516 75.624 200.197 76.2041 200.11C76.813 200.11 77.2046 200.139 77.3788 200.197C78.2198 200.516 78.7565 201.226 78.9885 202.329C79.1337 203.112 79.2062 204.112 79.2062 205.331V206.723C79.2062 206.839 79.2206 206.897 79.2497 206.897C79.2788 206.897 79.3222 206.854 79.3801 206.767C79.6703 206.187 79.975 205.505 80.294 204.722C80.845 203.301 81.3526 202.358 81.8167 201.893C82.3969 201.255 83.0931 200.936 83.9053 200.936C84.9492 200.936 85.7762 201.415 86.3851 202.372C86.7332 202.952 86.9074 203.59 86.9074 204.287C86.9074 205.302 86.4285 205.838 85.4715 205.896C84.8044 205.752 84.369 205.534 84.1661 205.244C83.9631 204.954 83.7602 204.374 83.5572 203.503C83.499 203.126 83.4412 202.938 83.383 202.938C83.3539 202.938 83.3104 202.981 83.2526 203.068C82.6724 203.909 82.0922 205.65 81.5121 208.29C80.9901 210.668 80.729 212.466 80.729 213.684V215.816C80.6421 217.702 79.9311 218.688 78.5969 218.775Z" fill="#368735"/>
<path d="M93.9988 217.644C93.8541 217.644 93.5567 217.615 93.1069 217.557C92.6575 217.499 92.0267 217.165 91.2145 216.556C90.3153 215.773 89.6335 214.83 89.1694 213.728C88.5314 212.307 88.2124 210.74 88.2124 209.029C88.2124 208.159 88.3137 207.216 88.517 206.201C88.836 204.373 89.474 202.894 90.4314 201.763C91.2436 200.835 92.128 200.371 93.0853 200.371C93.6364 200.371 94.0862 200.559 94.4343 200.936C94.8984 201.487 95.1301 202.213 95.1301 203.112L95.0866 203.59C94.9127 206.897 94.8258 208.913 94.8258 209.638C94.8258 210.334 94.8402 211.001 94.8693 211.64C95.014 213.119 95.3478 213.873 95.8697 213.902C96.3051 213.902 96.8343 213.344 97.4579 212.227C98.0815 211.11 98.6688 209.653 99.2203 207.854C99.2203 207.796 99.2347 207.753 99.2638 207.724C99.4376 207.115 99.5827 206.462 99.6988 205.766C99.9017 204.49 100.163 203.561 100.482 202.981C100.888 202.14 101.468 201.719 102.222 201.719C102.976 201.719 103.477 202.176 103.723 203.09C103.97 204.004 104.18 205.36 104.354 207.158C104.528 209.392 104.905 211.364 105.486 213.075C105.689 213.684 105.79 214.207 105.79 214.642C105.79 214.874 105.739 215.178 105.638 215.556C105.536 215.932 105.275 216.244 104.854 216.491C104.434 216.737 103.992 216.861 103.527 216.861C102.86 216.861 102.287 216.716 101.809 216.426C101.33 216.135 100.989 215.715 100.786 215.164C100.438 214.352 100.264 213.481 100.264 212.553V211.944C100.235 211.944 100.134 212.104 99.9599 212.423C98.9735 214.076 98.1325 215.251 97.4363 215.947C96.3051 217.078 95.1592 217.644 93.9988 217.644Z" fill="#368735"/>
<path d="M115.406 218.079C110.707 218.079 108.357 214.627 108.357 207.723C108.357 204.852 108.56 201.893 108.966 198.848C109.517 193.076 110.837 190.189 112.926 190.189C113.535 190.189 114.086 190.465 114.579 191.016C115.072 191.567 115.318 192.307 115.318 193.235C115.318 193.554 115.29 193.931 115.232 194.366L115.058 201.328C115.058 202.256 115.398 202.742 116.08 202.785C116.761 202.829 117.218 202.851 117.45 202.851L117.929 202.807C118.712 202.807 119.104 203.039 119.104 203.503C119.104 203.851 118.727 204.098 117.973 204.243C117.567 204.33 117.175 204.446 116.798 204.591C115.812 204.997 115.304 205.388 115.275 205.766C115.246 205.94 115.232 206.186 115.232 206.505C115.232 208.942 115.42 211.103 115.797 212.988C116.029 214.236 116.363 214.859 116.798 214.859C117.262 214.859 117.697 214.264 118.103 213.075C118.393 212.437 118.712 212.118 119.061 212.118C119.38 212.118 119.662 212.343 119.909 212.793C120.155 213.242 120.279 213.699 120.279 214.163C120.279 214.975 119.974 215.671 119.365 216.251C118.147 217.412 116.827 218.021 115.406 218.079Z" fill="#368735"/>
<path d="M126.37 218.122C125.065 218.122 123.941 217.543 122.998 216.382C122.056 215.222 121.584 213.597 121.584 211.509C121.584 209.798 121.831 208.13 122.324 206.506C123.165 203.692 124.586 201.792 126.588 200.806C127.284 200.458 127.995 200.284 128.72 200.284C128.778 200.284 129.01 200.291 129.416 200.306C129.822 200.32 130.337 200.53 130.96 200.936C131.584 201.342 132.055 201.901 132.374 202.611C132.693 203.322 132.853 204.084 132.853 204.896C132.853 205.389 132.73 205.737 132.483 205.94C132.237 206.143 131.983 206.244 131.722 206.244H131.461C131.2 206.244 130.895 205.679 130.547 204.548C130.286 203.649 130.039 203.199 129.807 203.199C129.459 203.199 129.111 203.663 128.763 204.591C128.27 205.955 127.922 207.579 127.719 209.464C127.574 210.654 127.501 211.553 127.501 212.162C127.501 213.206 127.675 213.728 128.023 213.728C128.314 213.728 128.763 213.192 129.372 212.118C129.662 211.596 130.185 210.581 130.939 209.073C131.374 208.028 132.07 207.506 133.027 207.506C133.52 207.506 133.919 207.651 134.224 207.941C134.528 208.231 134.68 208.623 134.68 209.116C134.68 209.812 134.709 210.436 134.768 210.987C134.825 212.06 135.232 213.424 135.986 215.077C136.073 215.28 136.116 215.483 136.116 215.686C136.116 215.918 136.029 216.165 135.855 216.426C135.536 216.948 134.985 217.209 134.202 217.209C133.303 217.209 132.614 216.846 132.135 216.121C131.657 215.396 131.359 214.526 131.243 213.511C131.243 213.249 131.229 213.119 131.2 213.119C131.113 213.119 130.793 213.641 130.242 214.685C129.546 215.991 128.937 216.89 128.415 217.383C127.893 217.876 127.211 218.122 126.37 218.122Z" fill="#368735"/>
<path d="M144.47 214.511C145.34 214.511 145.978 213.96 146.384 212.858C146.5 212.133 146.558 210.943 146.558 209.29C146.558 205.316 146.253 203.329 145.645 203.329C145.47 203.329 145.26 203.416 145.013 203.59C144.767 203.764 144.535 203.975 144.318 204.221C144.1 204.468 143.948 204.692 143.861 204.896C143.019 206.694 142.599 208.695 142.599 210.9C142.599 213.307 143.222 214.511 144.47 214.511ZM150.3 218.514C149.314 218.514 148.618 217.818 148.212 216.425C147.98 215.671 147.776 215.28 147.602 215.251C147.429 215.251 147.24 215.367 147.037 215.599C145.789 217.31 144.412 218.166 142.903 218.166C142.613 218.166 142.171 218.101 141.576 217.97C140.982 217.839 140.264 217.325 139.423 216.425C138.176 215.033 137.552 212.843 137.552 209.856C137.668 207.825 138.233 205.969 139.249 204.286C140.322 202.43 141.787 201.255 143.643 200.762C143.933 200.675 144.223 200.632 144.513 200.632C144.774 200.661 145.006 200.69 145.209 200.719C145.413 200.748 145.586 200.762 145.732 200.762C145.993 200.762 146.152 200.733 146.21 200.675C146.326 200.675 146.413 200.632 146.471 200.545C146.529 200.458 146.616 200.081 146.732 199.413C146.848 198.282 147.044 197.027 147.32 195.65C147.595 194.272 148.001 193.09 148.538 192.104C149.075 191.118 149.763 190.625 150.605 190.625C151.272 190.625 151.823 190.871 152.258 191.364C152.693 191.857 152.91 192.568 152.91 193.496C152.91 194.743 152.867 195.962 152.78 197.151C152.171 203.59 151.866 208.623 151.866 212.249C151.866 213.699 151.953 215.047 152.127 216.295C152.156 216.411 152.171 216.542 152.171 216.687C152.171 217.122 152.018 217.535 151.714 217.926C151.41 218.318 150.938 218.514 150.3 218.514Z" fill="#368735"/>
<path d="M163.788 214.381C164.049 214.381 164.339 214.25 164.658 213.989C165.993 212.916 166.66 211.089 166.66 208.507C166.66 206.679 166.326 204.954 165.659 203.329C165.195 202.256 164.701 201.705 164.179 201.676C163.89 201.676 163.599 201.908 163.309 202.372C162.468 203.677 162.047 205.577 162.047 208.072C162.047 209.464 162.106 210.61 162.222 211.509C162.425 212.495 162.65 213.221 162.896 213.684C163.142 214.149 163.44 214.381 163.788 214.381ZM161.787 217.992C159.843 217.992 158.19 217.035 156.826 215.12C155.637 213.467 155.042 211.495 155.042 209.203C155.042 208.217 155.231 207.173 155.608 206.071C156.333 203.837 157.493 202.097 159.089 200.85C160.104 200.095 161.279 199.718 162.613 199.718C164.847 199.718 166.514 200.704 167.617 202.677C168.4 204.098 168.792 205.896 168.792 208.072C168.792 210.218 168.371 212.147 167.53 213.859C166.166 216.614 164.252 217.992 161.787 217.992Z" fill="#368735"/>
</svg>
